<svg id="Ebene_1" data-name="Ebene 1" xmlns="http://www.w3.org/2000/svg" viewBox="0 0 210 52"><defs><style>.cls-1{fill:#048263;}.cls-2{fill:none;stroke:#048263;stroke-miterlimit:10;stroke-width:1.28px;}.cls-3{fill:#010101;}.cls-4{fill:#228d6d;}.cls-5{fill:#050403;}.cls-6{fill:#25866a;}.cls-7{fill:#a6b6b8;}.cls-8{fill:#ebebeb;}.cls-9{fill:#238e6e;}.cls-10{fill:#eef6f3;}.cls-11{fill:#eff6f4;}</style></defs><path d="M51.29,18V10.67h2.83v.75H52.31v2.41h1.46v.73H52.31v2.67h1.82V18Z"/><path d="M54.83,18V12.85h1.11a1.87,1.87,0,0,1,.89.18,1,1,0,0,1,.48.52,2.38,2.38,0,0,1,.14.86v1.88a2.68,2.68,0,0,1-.14.91,1.08,1.08,0,0,1-.46.56A1.66,1.66,0,0,1,56,18Zm.71-.51h.4a.83.83,0,0,0,.56-.15.75.75,0,0,0,.2-.45,6.73,6.73,0,0,0,0-.69V14.5a3.52,3.52,0,0,0,0-.64.51.51,0,0,0-.22-.36.94.94,0,0,0-.54-.12h-.38Z"/><path d="M58.22,18V12.85h.7V18Z"/><path d="M60.33,18V13.38h-.86v-.53h2.41v.53h-.83V18Z"/><path d="M62.44,18V12.85h.7V18Z"/><path d="M65.3,18a1.42,1.42,0,0,1-.82-.2,1.06,1.06,0,0,1-.44-.57,2.63,2.63,0,0,1-.13-.88V14.42a2.47,2.47,0,0,1,.13-.86,1.08,1.08,0,0,1,.44-.56,1.53,1.53,0,0,1,.82-.19,1.48,1.48,0,0,1,.82.2,1.1,1.1,0,0,1,.44.55,2.46,2.46,0,0,1,.14.86v1.94a2.56,2.56,0,0,1-.14.87,1.17,1.17,0,0,1-.44.58A1.4,1.4,0,0,1,65.3,18Zm0-.56a.71.71,0,0,0,.43-.11.62.62,0,0,0,.2-.33,2.41,2.41,0,0,0,0-.5V14.28a2.31,2.31,0,0,0,0-.49.59.59,0,0,0-.2-.32.71.71,0,0,0-.43-.11.76.76,0,0,0-.43.11.59.59,0,0,0-.2.32,2.31,2.31,0,0,0,0,.49v2.23a2.41,2.41,0,0,0,0,.5.62.62,0,0,0,.2.33A.76.76,0,0,0,65.3,17.45Z"/><path d="M67.43,18V12.85h.48l1.45,3.39V12.85H70V18H69.5L68,14.47V18Z"/><path d="M72,18a1.31,1.31,0,0,1-.74-.19,1.18,1.18,0,0,1-.44-.52,2.23,2.23,0,0,1-.18-.77l.63-.17a3,3,0,0,0,.09.52.85.85,0,0,0,.22.41.54.54,0,0,0,.42.16.57.57,0,0,0,.42-.15.65.65,0,0,0,.14-.45.86.86,0,0,0-.16-.55,2.62,2.62,0,0,0-.4-.43l-.85-.75a1.41,1.41,0,0,1-.37-.49,1.52,1.52,0,0,1-.12-.64,1.11,1.11,0,0,1,.32-.87,1.17,1.17,0,0,1,.87-.31,1.8,1.8,0,0,1,.54.08.88.88,0,0,1,.38.24,1.5,1.5,0,0,1,.25.41,2.36,2.36,0,0,1,.12.59l-.61.16a2.11,2.11,0,0,0-.07-.46.72.72,0,0,0-.2-.34.56.56,0,0,0-.41-.13.6.6,0,0,0-.41.14.54.54,0,0,0-.15.42.86.86,0,0,0,.08.38,1,1,0,0,0,.26.31l.86.76A3,3,0,0,1,73,16a1.49,1.49,0,0,1,.22.83,1.23,1.23,0,0,1-.16.65,1.09,1.09,0,0,1-.43.42A1.27,1.27,0,0,1,72,18Z"/><path d="M73.8,18V12.85h1.26a1.45,1.45,0,0,1,.74.17,1,1,0,0,1,.4.48,2.18,2.18,0,0,1,.12.77,1.49,1.49,0,0,1-.14.69,1,1,0,0,1-.42.46,1.31,1.31,0,0,1-.69.16h-.56V18Zm.71-2.89h.33a1.28,1.28,0,0,0,.48-.07.4.4,0,0,0,.25-.24,1.28,1.28,0,0,0,.08-.49,2,2,0,0,0-.06-.56.38.38,0,0,0-.22-.27,1.36,1.36,0,0,0-.53-.08h-.33Z"/><path d="M76.85,18V12.85h1a2.23,2.23,0,0,1,.84.14.93.93,0,0,1,.5.43,1.79,1.79,0,0,1,.16.79,2.23,2.23,0,0,1-.06.54,1.06,1.06,0,0,1-.21.41.76.76,0,0,1-.36.24L79.47,18h-.68l-.67-2.4h-.56V18Zm.71-2.91h.27a1.4,1.4,0,0,0,.5-.07.53.53,0,0,0,.27-.26,1.16,1.16,0,0,0,.09-.51,1,1,0,0,0-.16-.65.84.84,0,0,0-.65-.2h-.32Z"/><path d="M81.46,18a1.46,1.46,0,0,1-.83-.2,1.11,1.11,0,0,1-.44-.57,2.63,2.63,0,0,1-.13-.88V14.42a2.47,2.47,0,0,1,.13-.86,1.05,1.05,0,0,1,.45-.56,1.49,1.49,0,0,1,.82-.19,1.53,1.53,0,0,1,.82.2,1.08,1.08,0,0,1,.43.55,2.46,2.46,0,0,1,.14.86v1.94a2.56,2.56,0,0,1-.14.87,1.16,1.16,0,0,1-.43.58A1.45,1.45,0,0,1,81.46,18Zm0-.56a.74.74,0,0,0,.43-.11.6.6,0,0,0,.19-.33,2.41,2.41,0,0,0,0-.5V14.28a2.31,2.31,0,0,0,0-.49.58.58,0,0,0-.19-.32.74.74,0,0,0-.43-.11.71.71,0,0,0-.43.11.54.54,0,0,0-.2.32,1.8,1.8,0,0,0,0,.49v2.23a1.88,1.88,0,0,0,0,.5.56.56,0,0,0,.2.33A.71.71,0,0,0,81.46,17.45Z"/><path d="M84.8,18a1.35,1.35,0,0,1-.77-.2,1.21,1.21,0,0,1-.42-.6,3.21,3.21,0,0,1-.12-.94V14.57a3.31,3.31,0,0,1,.11-1A1.1,1.1,0,0,1,84,13a1.44,1.44,0,0,1,.83-.21,1.55,1.55,0,0,1,.77.16.94.94,0,0,1,.43.49,2.25,2.25,0,0,1,.13.84v.19h-.67v-.16a2.81,2.81,0,0,0,0-.55.51.51,0,0,0-.18-.31.68.68,0,0,0-.42-.11.61.61,0,0,0-.46.15.65.65,0,0,0-.18.39,4.91,4.91,0,0,0,0,.57v1.89a3.49,3.49,0,0,0,0,.61.59.59,0,0,0,.21.36.66.66,0,0,0,.42.12.61.61,0,0,0,.43-.13.73.73,0,0,0,.21-.39,2.9,2.9,0,0,0,.06-.64v-.36h-.65v-.5h1.29V18h-.45l-.07-.59a1,1,0,0,1-.31.47A.89.89,0,0,1,84.8,18Z"/><path d="M87,18V12.85h1a2.23,2.23,0,0,1,.84.14.93.93,0,0,1,.5.43,1.79,1.79,0,0,1,.16.79,2.23,2.23,0,0,1-.06.54,1.06,1.06,0,0,1-.21.41.76.76,0,0,1-.36.24L89.6,18h-.68l-.67-2.4h-.56V18Zm.71-2.91H88a1.4,1.4,0,0,0,.5-.07.53.53,0,0,0,.27-.26,1.16,1.16,0,0,0,.09-.51,1,1,0,0,0-.16-.65.84.84,0,0,0-.65-.2h-.32Z"/><path d="M90,18l1.08-5.11h.69L92.87,18h-.68L92,16.67h-1L90.67,18Zm1-1.8h.85l-.42-2.3Z"/><path d="M93.4,18l.1-5.11h.7L95.1,17l.9-4.14h.7L96.79,18h-.57l-.06-3.71L95.3,18h-.4L94,14.25,94,18Z"/><path d="M97.59,18l.1-5.11h.7l.9,4.14.9-4.14h.7L101,18h-.57l-.06-3.71L99.49,18h-.41l-.85-3.71L98.17,18Z"/><path d="M51.27,29V21.67h3.08v1H52.76v2h1.35v1H52.76V29Z"/><path d="M55,29V23.85H56.3a3,3,0,0,1,.89.12,1.07,1.07,0,0,1,.56.41,1.48,1.48,0,0,1,.2.82,3.06,3.06,0,0,1-.05.56,1.15,1.15,0,0,1-.19.42.94.94,0,0,1-.38.29L58,29H57l-.59-2.32H56V29ZM56,26h.3a.89.89,0,0,0,.4-.08.5.5,0,0,0,.2-.25,1.29,1.29,0,0,0,.06-.42.88.88,0,0,0-.13-.53.53.53,0,0,0-.48-.19H56Z"/><path d="M58.43,29l1-5.11h1.15l1,5.11h-1l-.18-1.13H59.6L59.41,29ZM59.7,27.2h.61L60,25.14Z"/><path d="M62.1,29V23.85h1V26l.92-2.16h1l-1,2.3,1,2.81h-1l-.78-2.29-.17.29v2Z"/><path d="M66.09,29V24.63H65.3v-.78h2.61v.78h-.77V29Z"/><path d="M68.41,29V23.85h1V29Z"/><path d="M71.68,29a1.59,1.59,0,0,1-.88-.21,1.06,1.06,0,0,1-.47-.57,2.42,2.42,0,0,1-.15-.9v-1.9a2.42,2.42,0,0,1,.15-.9A1.08,1.08,0,0,1,70.8,24a1.69,1.69,0,0,1,.88-.2,1.77,1.77,0,0,1,.9.2,1.06,1.06,0,0,1,.47.57,2.33,2.33,0,0,1,.15.89v1.9a2.42,2.42,0,0,1-.15.9,1.06,1.06,0,0,1-.47.57A1.66,1.66,0,0,1,71.68,29Zm0-.75a.38.38,0,0,0,.3-.1.55.55,0,0,0,.13-.24,1.69,1.69,0,0,0,0-.33V25.2a1.69,1.69,0,0,0,0-.33.55.55,0,0,0-.13-.24.38.38,0,0,0-.3-.1.36.36,0,0,0-.28.1.55.55,0,0,0-.13.24,1.69,1.69,0,0,0,0,.33v2.41a1.69,1.69,0,0,0,0,.33.46.46,0,0,0,.12.24A.38.38,0,0,0,71.68,28.28Z"/><path d="M73.92,29V23.85h.73l1.13,2.66V23.85h.86V29h-.7l-1.13-2.83V29Z"/><path d="M77.44,29V23.85h2.23v.72H78.48v1.36h.92v.72h-.92v1.6h1.2V29Z"/><path d="M80.23,29V23.85H81l1.13,2.66V23.85H83V29h-.69l-1.14-2.83V29Z"/><path d="M86.06,29V23.85h1V29Z"/><path d="M87.89,29,88,23.85h1.1l.63,3.22.67-3.22h1.07L91.54,29h-.76L90.7,25.5,90.05,29H89.4l-.68-3.49L88.65,29Z"/><path d="M94.78,29V21.67h1.78a3.47,3.47,0,0,1,1.44.24,1.38,1.38,0,0,1,.74.74A3.47,3.47,0,0,1,99,24v2.66a3.6,3.6,0,0,1-.21,1.33,1.48,1.48,0,0,1-.73.77A3.36,3.36,0,0,1,96.6,29Zm1.48-1h.32a1,1,0,0,0,.59-.13.61.61,0,0,0,.22-.39,3.77,3.77,0,0,0,0-.63v-3a2.41,2.41,0,0,0-.06-.6.5.5,0,0,0-.23-.34,1.17,1.17,0,0,0-.57-.11h-.31Z"/><path d="M99.81,29V23.85H102v.72h-1.19v1.36h.92v.72h-.92v1.6h1.2V29Z"/><path d="M104,29a1.77,1.77,0,0,1-.9-.2,1.1,1.1,0,0,1-.45-.58,2.69,2.69,0,0,1-.13-.91V23.85h1v3.64a2.22,2.22,0,0,0,0,.37.68.68,0,0,0,.12.3.41.41,0,0,0,.3.11.42.42,0,0,0,.31-.11.68.68,0,0,0,.12-.3,2.22,2.22,0,0,0,0-.37V23.85h1v3.49a2.69,2.69,0,0,1-.13.91,1,1,0,0,1-.45.58A1.71,1.71,0,0,1,104,29Z"/><path d="M106.76,29V24.63H106v-.78h2.61v.78h-.78V29Z"/><path d="M110.39,29a1.59,1.59,0,0,1-.79-.18,1.14,1.14,0,0,1-.47-.52,2.4,2.4,0,0,1-.19-.89l.9-.15a3.25,3.25,0,0,0,.06.52.65.65,0,0,0,.17.32.36.36,0,0,0,.27.1.3.3,0,0,0,.28-.12.69.69,0,0,0,.07-.29.85.85,0,0,0-.16-.54,2.28,2.28,0,0,0-.4-.44l-.53-.46a2.13,2.13,0,0,1-.46-.54,1.44,1.44,0,0,1-.18-.75,1.24,1.24,0,0,1,.36-1,1.45,1.45,0,0,1,1-.34,1.34,1.34,0,0,1,.63.13.94.94,0,0,1,.38.33,1.66,1.66,0,0,1,.19.46,4.26,4.26,0,0,1,.06.5l-.89.13a2.48,2.48,0,0,0,0-.41.55.55,0,0,0-.11-.28.35.35,0,0,0-.26-.1.31.31,0,0,0-.27.14.53.53,0,0,0-.09.3.74.74,0,0,0,.13.44,1.8,1.8,0,0,0,.33.36l.52.46a2.55,2.55,0,0,1,.55.63,1.54,1.54,0,0,1,.23.88,1.28,1.28,0,0,1-.16.65,1.17,1.17,0,0,1-.46.45A1.36,1.36,0,0,1,110.39,29Z"/><path d="M113.7,29a1.58,1.58,0,0,1-.9-.22,1.13,1.13,0,0,1-.46-.59,2.69,2.69,0,0,1-.13-.89V25.5a2.73,2.73,0,0,1,.13-.91,1.09,1.09,0,0,1,.46-.59,1.66,1.66,0,0,1,.9-.21,1.75,1.75,0,0,1,.86.18,1.06,1.06,0,0,1,.44.52,2,2,0,0,1,.13.77v.43h-1v-.48a1.83,1.83,0,0,0,0-.33.43.43,0,0,0-.1-.25.4.4,0,0,0-.29-.1.46.46,0,0,0-.31.1.56.56,0,0,0-.12.27,3.49,3.49,0,0,0,0,.35v2.32a2.17,2.17,0,0,0,0,.38.48.48,0,0,0,.14.24.38.38,0,0,0,.28.09.36.36,0,0,0,.28-.1.52.52,0,0,0,.11-.26c0-.11,0-.23,0-.35v-.5h1v.43a2.18,2.18,0,0,1-.13.79,1.09,1.09,0,0,1-.43.54A1.65,1.65,0,0,1,113.7,29Z"/><path d="M115.81,29V23.85h1V26h.9v-2.1h1V29h-1V26.7h-.9V29Z"/><path d="M119.61,29V23.85h2.22v.72h-1.18v1.36h.91v.72h-.91v1.6h1.2V29Z"/><path d="M122.4,29V23.85h.72l1.14,2.66V23.85h.86V29h-.7l-1.13-2.83V29Z"/><path d="M128.38,29V21.67h1.85a4.12,4.12,0,0,1,.88.08,1.8,1.8,0,0,1,.71.29,1.23,1.23,0,0,1,.48.57,2.31,2.31,0,0,1,.17.95,1.9,1.9,0,0,1-.13.75,1.07,1.07,0,0,1-.36.49,1.28,1.28,0,0,1-.57.24,1.51,1.51,0,0,1,.71.29,1.44,1.44,0,0,1,.43.59,2.64,2.64,0,0,1,.14.89,2.78,2.78,0,0,1-.14,1,1.58,1.58,0,0,1-.41.66,1.7,1.7,0,0,1-.66.4,3.19,3.19,0,0,1-.92.13Zm1.49-4.35h.37a1.27,1.27,0,0,0,.58-.11.67.67,0,0,0,.28-.34,1.93,1.93,0,0,0,.07-.57,1.13,1.13,0,0,0-.11-.53.65.65,0,0,0-.34-.29,1.63,1.63,0,0,0-.58-.1h-.27Zm0,3.3h.41a.9.9,0,0,0,.77-.28,1.35,1.35,0,0,0,.21-.83,1.86,1.86,0,0,0-.1-.69.67.67,0,0,0-.32-.38,1.21,1.21,0,0,0-.59-.12h-.38Z"/><path d="M134.86,29a1.77,1.77,0,0,1-.9-.2,1.1,1.1,0,0,1-.45-.58,3,3,0,0,1-.13-.91V23.85h1v3.64a2.22,2.22,0,0,0,0,.37.68.68,0,0,0,.12.3.41.41,0,0,0,.3.11.42.42,0,0,0,.31-.11.58.58,0,0,0,.12-.3,2.22,2.22,0,0,0,0-.37V23.85h1v3.49a3,3,0,0,1-.12.91,1.1,1.1,0,0,1-.45.58A1.78,1.78,0,0,1,134.86,29Z"/><path d="M137.1,29V23.85h.72L139,26.51V23.85h.86V29h-.7L138,26.13V29Z"/><path d="M140.62,29V23.85h1.25a2.49,2.49,0,0,1,1,.17,1,1,0,0,1,.51.52,2.36,2.36,0,0,1,.16.91v1.86a2.52,2.52,0,0,1-.16.94,1,1,0,0,1-.5.53,2.24,2.24,0,0,1-1,.18Zm1-.73h.22a.69.69,0,0,0,.41-.09.38.38,0,0,0,.16-.27,2.76,2.76,0,0,0,0-.44V25.32a1.61,1.61,0,0,0,0-.42.38.38,0,0,0-.16-.24.83.83,0,0,0-.4-.08h-.22Z"/><path d="M144.26,29V23.85h2.23v.72H145.3v1.36h.92v.72h-.92v1.6h1.2V29Z"/><path d="M148.38,29a1.57,1.57,0,0,1-.79-.18,1.11,1.11,0,0,1-.48-.52,2.41,2.41,0,0,1-.18-.89l.89-.15a2.34,2.34,0,0,0,.07.52.64.64,0,0,0,.16.32.4.4,0,0,0,.28.1.29.29,0,0,0,.27-.12.57.57,0,0,0,.07-.29.91.91,0,0,0-.15-.54,2.36,2.36,0,0,0-.41-.44l-.53-.46a2.13,2.13,0,0,1-.46-.54,1.44,1.44,0,0,1-.18-.75,1.21,1.21,0,0,1,.37-1,1.4,1.4,0,0,1,1-.34,1.28,1.28,0,0,1,.63.13.94.94,0,0,1,.38.33,1.66,1.66,0,0,1,.19.46,2.87,2.87,0,0,1,.07.5l-.89.13c0-.15,0-.29,0-.41a.56.56,0,0,0-.12-.28.32.32,0,0,0-.25-.1.31.31,0,0,0-.27.14.53.53,0,0,0-.09.3.74.74,0,0,0,.12.44,1.87,1.87,0,0,0,.34.36l.52.46a3,3,0,0,1,.55.63,1.62,1.62,0,0,1,.23.88,1.29,1.29,0,0,1-.17.65,1.21,1.21,0,0,1-.45.45A1.41,1.41,0,0,1,148.38,29Z"/><path d="M150.75,29V24.63H150v-.78h2.61v.78h-.78V29Z"/><path d="M152.81,29l1-5.11H155l1,5.11h-1l-.19-1.13H154l-.2,1.13Zm1.26-1.76h.61l-.31-2.06Z"/><path d="M157.78,29a1.45,1.45,0,0,1-.82-.21,1.27,1.27,0,0,1-.43-.62,3.26,3.26,0,0,1-.13-.93V25.56a2.91,2.91,0,0,1,.14-.94A1.06,1.06,0,0,1,157,24a1.58,1.58,0,0,1,.9-.22,1.75,1.75,0,0,1,.86.18,1.1,1.1,0,0,1,.46.52,2.1,2.1,0,0,1,.14.79v.3h-1v-.36a3.49,3.49,0,0,0,0-.35.45.45,0,0,0-.12-.25.4.4,0,0,0-.29-.09.38.38,0,0,0-.3.11.43.43,0,0,0-.12.28,2,2,0,0,0,0,.35v2.26a1.56,1.56,0,0,0,0,.39.44.44,0,0,0,.14.26.4.4,0,0,0,.3.1.45.45,0,0,0,.3-.1.58.58,0,0,0,.15-.28,1.51,1.51,0,0,0,0-.39V27h-.5v-.63h1.44V29h-.68l-.06-.46a1,1,0,0,1-.31.38A.87.87,0,0,1,157.78,29Z"/><path class="cls-1" d="M52.26,40v-6l-.2,0-.44.09-.43.08-.2,0v-.73l.36-.1.41-.15a2.38,2.38,0,0,0,.41-.23,1.4,1.4,0,0,0,.33-.31h.72V40Z"/><path class="cls-1" d="M56.54,40a2.07,2.07,0,0,1-1-.21,1.41,1.41,0,0,1-.61-.62,2.12,2.12,0,0,1-.21-1v-.08h1a1.59,1.59,0,0,0,.17.8.72.72,0,0,0,.67.29.64.64,0,0,0,.45-.17,1,1,0,0,0,.27-.51,3.61,3.61,0,0,0,.09-.88V36.57a1.1,1.1,0,0,1-.4.37,1.73,1.73,0,0,1-1.61-.13,1.37,1.37,0,0,1-.48-.74,3.63,3.63,0,0,1-.14-1.1,3.78,3.78,0,0,1,.18-1.2,1.73,1.73,0,0,1,.58-.85,1.62,1.62,0,0,1,1-.32,1.58,1.58,0,0,1,1,.32,1.81,1.81,0,0,1,.58.86A3.53,3.53,0,0,1,58.33,35v2.45a5.18,5.18,0,0,1-.16,1.29,2,2,0,0,1-.55,1A1.53,1.53,0,0,1,56.54,40Zm0-3.69a.82.82,0,0,0,.51-.16,1.45,1.45,0,0,0,.31-.35V34.76a2.82,2.82,0,0,0-.08-.68,1,1,0,0,0-.25-.5.66.66,0,0,0-.49-.18.68.68,0,0,0-.5.18,1,1,0,0,0-.26.5,2.71,2.71,0,0,0-.08.66,6.8,6.8,0,0,0,0,.8,1.16,1.16,0,0,0,.22.59A.71.71,0,0,0,56.54,36.35Z"/><path class="cls-1" d="M61.37,40V38H59.25V37l1.9-4.33h1.14v4.48h.82V38h-.82v2Zm-1.19-2.81h1.19V33.84Z"/><path class="cls-1" d="M65.49,40a2.07,2.07,0,0,1-1-.21,1.38,1.38,0,0,1-.6-.62,2.25,2.25,0,0,1-.22-1v-.08h1a1.59,1.59,0,0,0,.17.8.73.73,0,0,0,.67.29.64.64,0,0,0,.45-.17,1,1,0,0,0,.27-.51,3.61,3.61,0,0,0,.09-.88V36.57a1,1,0,0,1-.4.37,1.46,1.46,0,0,1-.66.14,1.33,1.33,0,0,1-1.43-1,4,4,0,0,1-.14-1.1,3.78,3.78,0,0,1,.18-1.2,1.8,1.8,0,0,1,.58-.85,1.66,1.66,0,0,1,1-.32,1.62,1.62,0,0,1,1,.32,1.88,1.88,0,0,1,.58.86A3.8,3.8,0,0,1,67.28,35v2.45a4.75,4.75,0,0,1-.16,1.29,1.9,1.9,0,0,1-.55,1A1.53,1.53,0,0,1,65.49,40Zm0-3.69a.82.82,0,0,0,.51-.16,1.12,1.12,0,0,0,.31-.35V34.76a2.84,2.84,0,0,0-.07-.68,1,1,0,0,0-.25-.5.68.68,0,0,0-.5-.18.7.7,0,0,0-.5.18,1.09,1.09,0,0,0-.26.5,2.71,2.71,0,0,0-.08.66,6.73,6.73,0,0,0,0,.8,1.07,1.07,0,0,0,.21.59A.72.72,0,0,0,65.49,36.35Z"/><path class="cls-1" d="M67.92,38.12v-.73h4.31v.73Z"/><path class="cls-1" d="M72.71,40v-.69l1.85-2.89.39-.6a3.19,3.19,0,0,0,.28-.59,2,2,0,0,0,.12-.71,1.64,1.64,0,0,0-.17-.8.57.57,0,0,0-.56-.28.72.72,0,0,0-.53.18,1,1,0,0,0-.26.5,2.71,2.71,0,0,0-.08.66V35h-1v-.25A3.15,3.15,0,0,1,73,33.6a1.38,1.38,0,0,1,.56-.73,1.8,1.8,0,0,1,1-.27,1.67,1.67,0,0,1,1.32.5,2.11,2.11,0,0,1,.43,1.38,2.81,2.81,0,0,1-.11.82,3.32,3.32,0,0,1-.3.66q-.18.32-.39.63l-1.68,2.56h2.31V40Z"/><path class="cls-1" d="M79,40a1.69,1.69,0,0,1-1-.28,1.65,1.65,0,0,1-.6-.77,2.92,2.92,0,0,1-.19-1.1V34.75a3,3,0,0,1,.19-1.13,1.52,1.52,0,0,1,.59-.75,1.79,1.79,0,0,1,1-.27,1.76,1.76,0,0,1,1,.27,1.58,1.58,0,0,1,.59.75,3,3,0,0,1,.19,1.13v3.14a2.93,2.93,0,0,1-.2,1.11,1.54,1.54,0,0,1-.58.76A1.73,1.73,0,0,1,79,40Zm0-.79a.67.67,0,0,0,.52-.2,1.21,1.21,0,0,0,.24-.51,3.39,3.39,0,0,0,.07-.64V34.74a2.73,2.73,0,0,0-.07-.66.94.94,0,0,0-.24-.5.65.65,0,0,0-.52-.19.67.67,0,0,0-.53.19,1,1,0,0,0-.25.5,3.37,3.37,0,0,0-.06.66V37.9a2.73,2.73,0,0,0,.07.64,1,1,0,0,0,.25.51A.69.69,0,0,0,79,39.25Z"/><path class="cls-1" d="M83.72,40a1.74,1.74,0,0,1-1-.28A1.7,1.7,0,0,1,82.1,39a2.92,2.92,0,0,1-.19-1.1V34.75a3,3,0,0,1,.19-1.13,1.52,1.52,0,0,1,.59-.75,1.79,1.79,0,0,1,1-.27,1.76,1.76,0,0,1,1,.27,1.58,1.58,0,0,1,.59.75,3.26,3.26,0,0,1,.19,1.13v3.14a2.93,2.93,0,0,1-.2,1.11,1.56,1.56,0,0,1-.59.76A1.68,1.68,0,0,1,83.72,40Zm0-.79a.65.65,0,0,0,.51-.2,1.11,1.11,0,0,0,.25-.51,3.39,3.39,0,0,0,.06-.64V34.74a3.37,3.37,0,0,0-.06-.66.94.94,0,0,0-.24-.5.65.65,0,0,0-.52-.19.67.67,0,0,0-.53.19.88.88,0,0,0-.25.5,3.37,3.37,0,0,0-.06.66V37.9a2.73,2.73,0,0,0,.07.64,1,1,0,0,0,.25.51A.67.67,0,0,0,83.72,39.25Z"/><path class="cls-1" d="M88.27,40a1.84,1.84,0,0,1-1-.25,1.38,1.38,0,0,1-.56-.73,3.52,3.52,0,0,1-.16-1.14h1a4.48,4.48,0,0,0,0,.64,1.14,1.14,0,0,0,.23.51.82.82,0,0,0,1.11,0,1.3,1.3,0,0,0,.21-.62,7.61,7.61,0,0,0,.05-.88,5,5,0,0,0-.06-.84,1,1,0,0,0-.22-.54A.73.73,0,0,0,88.3,36a.76.76,0,0,0-.51.18,1.31,1.31,0,0,0-.3.42h-.82v-3.9h3.14v1H87.54l-.06,2a1.23,1.23,0,0,1,.44-.3,1.66,1.66,0,0,1,.61-.11,1.38,1.38,0,0,1,.93.28,1.46,1.46,0,0,1,.48.77,4.1,4.1,0,0,1,.14,1.11,6.76,6.76,0,0,1-.08,1,2.6,2.6,0,0,1-.29.84,1.39,1.39,0,0,1-.55.55A1.8,1.8,0,0,1,88.27,40Z"/><line class="cls-2" x1="0.34" y1="51.05" x2="210.34" y2="50.95"/><path d="M42.48,43.13c-.06,0-.12,0-.17.09s-.24.15-.37.22a2.89,2.89,0,0,1-.6.24c-.14,0-.23.17-.37.22s-.28.14-.44.2a5.41,5.41,0,0,1-.55.12,3,3,0,0,0-.39.13.54.54,0,0,1-.21,0,.93.93,0,0,0-.47.11c-.23.08-.47.1-.7.18a.85.85,0,0,1-.32,0c-.06,0-.12,0-.16.06s-.08,0-.12,0l-.39,0c-.16,0-.29.09-.45.09s-.26,0-.39,0-.18.1-.29.08a.71.71,0,0,0-.25,0c-.05,0-.11,0-.16.05a.25.25,0,0,1-.21,0,.5.5,0,0,0-.36.06.2.2,0,0,1-.11,0c-.23,0-.46.06-.7.06-.07,0-.15,0-.2,0s-.05,0-.07,0l-.5,0c-.1,0-.2,0-.28.06s-.1,0-.15,0c-.39,0-.77,0-1.16,0a.46.46,0,0,0-.2.05.23.23,0,0,1-.11,0,4.36,4.36,0,0,0-.62.07,3.6,3.6,0,0,1-.66,0h-.74c-.07,0-.14,0-.19.05s-.06,0-.1,0a.21.21,0,0,0-.27,0,.13.13,0,0,1-.08,0h-.25c0-.11-.12,0-.15,0s0,0-.06,0-.15.08-.29,0a.24.24,0,0,0-.14,0H25.64a.19.19,0,0,0-.2.14c-.09.3-.23.57-.29.87a2.37,2.37,0,0,1-.09.36c0,.09-.09.13-.17.08l-.78-.55c-.16-.11-.33-.22-.49-.35a2.66,2.66,0,0,1-.35-.32.39.39,0,0,0-.33-.15c-.08,0-.18,0-.24,0-.06.09-.16,0-.23,0s-.08,0-.12,0a.35.35,0,0,0-.37,0,.66.66,0,0,1-.21,0H21c-.16,0-.17,0-.24.17a.81.81,0,0,1-.13.3.11.11,0,0,0,0,.05c0,.21-.1.41-.09.62s0,.18-.2.15a1.08,1.08,0,0,1-.57-.36.46.46,0,0,0-.23-.16s-.06,0-.09-.07a4.53,4.53,0,0,0-.49-.49s0,0,0,0c-.12-.25-.34-.2-.54-.17a2,2,0,0,1-.6,0,4.41,4.41,0,0,0-.52,0c-.14,0-.29,0-.43,0h-1c-.24,0-.33.06-.34.3a5.79,5.79,0,0,1-.17.63c0,.07-.08.07-.14.06a.73.73,0,0,1-.34-.17c-.18-.13-.36-.28-.53-.42s-.32-.22-.37-.43c0,0,0,0-.08,0a.41.41,0,0,0-.27,0h-.07c-.85,0-1.7,0-2.54,0-.46,0-.92,0-1.38,0A.72.72,0,0,1,9,45.42a2.71,2.71,0,0,0-.41-.28C8.44,45,8.23,45.06,8,45a2.38,2.38,0,0,0-.38,0s-.1,0-.14,0-.08,0-.12,0a.15.15,0,0,1-.19,0C7.13,44.94,7.05,45,7,45l-1.79,0c-.29,0-.57,0-.86,0a.82.82,0,0,1-.5-.13.22.22,0,0,1-.12-.13c0-.12-.14-.21-.14-.35s-.1-.22-.15-.33a2.72,2.72,0,0,1-.16-.35c0-.07-.08-.08-.1-.13s-.15-.23-.21-.35a1.14,1.14,0,0,0-.24-.25c-.22-.23-.46-.44-.68-.66a1.47,1.47,0,0,0-.36-.21,2.29,2.29,0,0,1-.43-.32c-.05,0,0-.09,0-.11H2.78c.06,0,.13,0,.18-.05s.06,0,.09,0,0,.05.06,0,.21,0,.31,0c.28,0,.55,0,.82,0s.4,0,.6,0l1,0,.31,0,.84,0,.41,0a1.13,1.13,0,0,0,.26,0,.86.86,0,0,1,.32,0,1.79,1.79,0,0,0,.4,0s.06,0,.07-.05.14-.17.11-.3,0-.07.06-.1.24-.26.28-.43l0,0a4.18,4.18,0,0,1,.71-.22c.39,0,.77,0,1.16,0,.06,0,.14,0,.19,0s0,0,.06,0a.36.36,0,0,0,.4,0,.3.3,0,0,1,.16,0h.86a.29.29,0,0,0,.3-.18,3.14,3.14,0,0,1,.38-.57c.12-.14.2-.31.3-.45s.24-.42.36-.63.23-.47.35-.7a2.07,2.07,0,0,0,.2-.46c0-.17.16-.3.2-.48s.08-.13.1-.22a3.23,3.23,0,0,1,.11-.47,1.92,1.92,0,0,1,.17-.43c.08-.11.06-.28.11-.42s.07-.27.13-.4a.5.5,0,0,0,0-.24s0-.06,0-.06-.17-.18-.27-.22-.08-.1-.15-.12a1,1,0,0,0-.29-.1.68.68,0,0,1-.34-.19.65.65,0,0,0-.23-.13,3.6,3.6,0,0,1-.89-.51c-.16,0-.26-.19-.41-.25a.66.66,0,0,1-.2-.14c-.18-.15-.39-.24-.57-.39s-.43-.27-.62-.45A2.07,2.07,0,0,0,11,31.9c-.42-.31-.82-.65-1.21-1s-.72-.71-1.08-1.06c-.13-.14-.24-.29-.35-.43l0-.05A1,1,0,0,1,8,28.92c-.06-.11-.16-.21-.23-.32l-.39-.66c-.19-.37-.39-.73-.59-1.1,0-.1-.09-.21-.14-.31s-.24-.49-.38-.73a3,3,0,0,1-.16-.42A2,2,0,0,0,6,24.86s0-.11,0-.16c-.09-.25-.15-.51-.26-.75a.58.58,0,0,1,0-.18A4.6,4.6,0,0,1,5.48,23c-.09-.13-.05-.31-.16-.45a.52.52,0,0,1-.08-.3c0-.11-.1-.17-.09-.29a.42.42,0,0,0-.06-.28c-.06-.08,0-.21,0-.32a4.59,4.59,0,0,1-.1-.9c0-.21,0-.42,0-.63,0,0,0,0,0,0a4.18,4.18,0,0,1-.09-1.32c0-.56,0-1.12,0-1.68s0-1.22,0-1.83c0-.05,0-.11.05-.15s0-.05,0-.08c0-.3.06-.6,0-.9A.48.48,0,0,1,5,13.53s0-.13,0-.19,0-.4,0-.59a.19.19,0,0,1,0-.08.4.4,0,0,0,.07-.35,3.2,3.2,0,0,1,.15-.76A3.15,3.15,0,0,1,5.42,11a3,3,0,0,0,.08-.65s0-.06,0-.07.1-.31.16-.47a1.81,1.81,0,0,0,.13-.47,1.65,1.65,0,0,1,.13-.53c0-.14.08-.28.12-.43a3.38,3.38,0,0,1,.08-.34c.07-.18.05-.38.12-.55a1.31,1.31,0,0,1,.15-.37.73.73,0,0,0,.11-.26c.06-.23.21-.41.26-.64A1.65,1.65,0,0,1,7,5.77a3.42,3.42,0,0,0,.17-.4c.08-.15.13-.32.2-.48a.91.91,0,0,1,.16-.31c.1-.09,0-.24.16-.3A2.55,2.55,0,0,1,8,3.69c.09-.21.17-.42.25-.64a.79.79,0,0,1,.23-.32.2.2,0,0,1,.14,0,6.1,6.1,0,0,1,.74,0A2.16,2.16,0,0,1,10,3c.05,0,.1,0,.16,0a.15.15,0,0,1,.1.23,1.37,1.37,0,0,0-.16.44.91.91,0,0,1-.21.4c-.12.11-.14.29-.21.43a2.14,2.14,0,0,1-.1.22c-.06.11,0,.17.12.16h.07c.15,0,.3,0,.46,0a3.7,3.7,0,0,0,1,0h.1a1.94,1.94,0,0,0,.59,0l.29,0a4.54,4.54,0,0,0,.74,0,1.63,1.63,0,0,1,.38,0s.06,0,.09,0c.22-.1.47,0,.69-.08.47.07.94,0,1.41.07s.63.09.95.12a3.9,3.9,0,0,1,.57.13c.11,0,.23,0,.31-.08a.53.53,0,0,1,.23-.17,4.39,4.39,0,0,0,.5-.34,2.66,2.66,0,0,0,.51-.39,1.61,1.61,0,0,1,.3-.21.7.7,0,0,0,.16-.13.32.32,0,0,1,.22-.13h.05c.13-.17.34-.2.51-.3s.14,0,.25,0a1.12,1.12,0,0,1,.34.49c.07.15.19.27.27.41a1.27,1.27,0,0,1,.07.12c0,.12.05.17,0,.22a2.07,2.07,0,0,0-.24.17,9.38,9.38,0,0,0-.9.77l-.05,0c-.09.11-.08.12.05.19s.44.16.63.3c.18,0,.3.13.46.15a.21.21,0,0,1,.11.07,4.06,4.06,0,0,0,.51.26l.07,0a3.17,3.17,0,0,0,.47.27l0,0a3.3,3.3,0,0,0,.73.56,3.69,3.69,0,0,0,.55.4l0,0a3.71,3.71,0,0,1,.6.77.41.41,0,0,0,.12.14,4.29,4.29,0,0,1,.48.56.63.63,0,0,1,.14.27.34.34,0,0,0,.09.12.78.78,0,0,1,.27.37.1.1,0,0,0,0,.07.3.3,0,0,1,.13.24.52.52,0,0,0,.08.2c.11.14.2.29.3.43a2,2,0,0,1,.16.28,1.9,1.9,0,0,1,.31.66.54.54,0,0,0,.1.2,4.06,4.06,0,0,0,.33.77.21.21,0,0,1,0,.07c0,.18.08.34.08.51a1.66,1.66,0,0,0,.15.39c0,.1.05.2.07.29a.77.77,0,0,1,.06.24c0,.12,0,.23,0,.34a2.19,2.19,0,0,1,0,.36s0,.08,0,.11a1.54,1.54,0,0,1,.14.57A.66.66,0,0,1,27,16a6.3,6.3,0,0,0,.05.75,2.28,2.28,0,0,1,0,.36.43.43,0,0,1,0,.05,4.36,4.36,0,0,1,0,.51,2.22,2.22,0,0,1,0,.68,1.86,1.86,0,0,0,0,.41.06.06,0,0,0,.05.07,2.52,2.52,0,0,0,.39.12A1.41,1.41,0,0,1,28,19s.08,0,.12,0a2.2,2.2,0,0,1,.62.12,2.86,2.86,0,0,0,.42.1,1.34,1.34,0,0,1,.38.14,6.4,6.4,0,0,1,.62.2,5.24,5.24,0,0,0,.64.2c.28.08.51.26.79.31a.61.61,0,0,1,.18.09,5.24,5.24,0,0,0,.65.27s0,.05.08.06.14.12.24.11.07,0,.1.05c.23.17.49.28.72.43a3.53,3.53,0,0,0,.75.38l.09.05c.2.18.44.31.65.47a5.54,5.54,0,0,1,1,.82c.14.05.2.2.33.26s.12.2.25.24c.1.19.33.29.38.52,0,0,0,0,0,0s.19.21.27.32.22.28.32.43a2.34,2.34,0,0,1,.26.43c.05.11.13.22.19.33a1.68,1.68,0,0,1,.21.37.18.18,0,0,0,.07.08.8.8,0,0,1,.27.41.31.31,0,0,0,.08.15c.05.06.12.12.11.22a.08.08,0,0,0,0,.05,3.14,3.14,0,0,1,.37.64,4.79,4.79,0,0,1,.26.56,1,1,0,0,1,.13.49s0,0,0,0,.07.05.07.1a.42.42,0,0,0,.06.3c.14.16.11.37.23.53s.1.26.18.38a.2.2,0,0,1,0,.13c0,.13.06.26,0,.39l0,0a1.52,1.52,0,0,1,.21.57c.07.21.11.42.17.62s.1.42.14.63,0,.14.06.2a.13.13,0,0,1,0,.09,3.71,3.71,0,0,0,0,.48.12.12,0,0,1-.1.16c-.13,0-.24.07-.36.09a1,1,0,0,0-.27.11c-.08,0-.2,0-.25.11h0c-.21,0-.39.11-.61.11a.83.83,0,0,0-.48.09s-.11,0-.16,0-.22,0-.31.09-.09,0-.14,0c-.28,0-.56,0-.84,0a1.57,1.57,0,0,0-.3,0,.51.51,0,0,1-.37,0,.14.14,0,0,0-.11,0,3.35,3.35,0,0,1-.71,0c-.11,0-.23,0-.33.06s-.12,0-.18,0-.23,0-.32.07-.1,0-.15,0h-.58c-.14,0-.15,0-.12.16a.62.62,0,0,1,0,.13c0,.33,0,.66,0,1a7,7,0,0,1,0,.79,2.33,2.33,0,0,0,0,.37c0,.09,0,.12-.12.13s-.46.07-.68.12a5.47,5.47,0,0,1-1.14.08c-.22,0-.44,0-.65,0l-.56,0s-.08,0-.09,0-.14.07-.23.07l-1,0h-3c-.08,0-.17,0-.2-.09-.05.09-.13.09-.21.09a1,1,0,0,0-.17,0c-.14,0-.15.07-.12.16a1.32,1.32,0,0,1,.08.52,1,1,0,0,0,0,.38,2.59,2.59,0,0,1,0,.48,2.05,2.05,0,0,0,.05.55,7.33,7.33,0,0,1,.19.81c0,.17.08.34.1.52a.59.59,0,0,0,0,.25c0,.05.1,0,.11.11h.05c.09-.11.16-.06.24,0s.07,0,.07,0,.18-.06.28-.06h.43c.08,0,.18,0,.25.06s.1,0,.15,0c.34,0,.68,0,1,0s.48,0,.73,0c0,0,.08,0,.12,0l0,0c.15-.1.29.05.44,0a1.32,1.32,0,0,1,.44,0,2.42,2.42,0,0,1,.47,0,2.74,2.74,0,0,0,.5.07c.2,0,.41,0,.61,0a.24.24,0,0,1,.18,0s.13,0,.19,0a2.22,2.22,0,0,1,.45,0,.75.75,0,0,0,.42,0,.65.65,0,0,1,.39,0,4.22,4.22,0,0,0,.62.1.41.41,0,0,1,.21,0,.4.4,0,0,0,.25,0,2.62,2.62,0,0,0,.28,0c.06,0,.12,0,.17.05s.08,0,.12,0l.24,0c.22,0,.42.1.65.1a1.27,1.27,0,0,1,.44,0c.19.07.4,0,.57.09s.5,0,.74.1c0,0,.07,0,.1,0a.5.5,0,0,0,.26.08.36.36,0,0,1,.25.06l0,0c.22,0,.4.12.62.13a1.26,1.26,0,0,1,.34.12.79.79,0,0,0,.22.06c.09,0,.18,0,.24.07s0,0,.06,0a1.48,1.48,0,0,1,.7.22h0a1.78,1.78,0,0,1,.67.23,2.13,2.13,0,0,1,.41.18A.38.38,0,0,1,42.48,43.13ZM15.28,32.37a2.19,2.19,0,0,0,0-.52,1.34,1.34,0,0,1,0-.28c0-.1-.06-.17-.08-.26,0-.28-.14-.55-.15-.83v0a2.51,2.51,0,0,1-.21-.6,4.86,4.86,0,0,0-.25-.63,2.72,2.72,0,0,1-.16-.35,1.48,1.48,0,0,0-.26-.48,2.57,2.57,0,0,1-.36-.62c-.14-.29-.33-.55-.48-.84a8.3,8.3,0,0,1-.54-1,4.83,4.83,0,0,0-.44-.76A1.7,1.7,0,0,0,12.2,25c-.13-.17-.19-.39-.32-.57a.39.39,0,0,1-.08-.2.32.32,0,0,0,0-.14,6.92,6.92,0,0,1-.44-1c-.05-.12-.09-.25-.14-.38s-.08-.23-.14-.35a6.36,6.36,0,0,1-.28-.84,2.46,2.46,0,0,1-.16-.85.06.06,0,0,0,0,0c-.14-.21-.08-.46-.16-.69A4.84,4.84,0,0,1,10.3,19a6.44,6.44,0,0,1-.1-.87c0-.1,0-.14-.14-.15a1,1,0,0,1-.42,0,.21.21,0,0,0-.11,0,1,1,0,0,1-.35.06,6.86,6.86,0,0,1-1.11,0l-.2,0a.44.44,0,0,1-.22,0A1.17,1.17,0,0,0,7.24,18a.27.27,0,0,0-.25.28V19.8c0,.06,0,.11.06.15s0,.05,0,.09a3,3,0,0,0,.1,1c.07.17,0,.37.1.55a3.42,3.42,0,0,0,.13.62c.06.11.07.25.13.35a.57.57,0,0,1,.06.28s0,0,0,.05a6.55,6.55,0,0,0,.19.63c.07.18.07.37.13.55a2.51,2.51,0,0,1,.14.66s0,.06,0,.07a.79.79,0,0,1,.11.39s0,.07,0,.08.08.11.09.17a.25.25,0,0,0,0,.12,1.46,1.46,0,0,1,.25.41,3,3,0,0,0,.21.4,1.34,1.34,0,0,1,.12.24c.05.18.2.29.26.45s.21.25.3.39.22.27.31.43a3.91,3.91,0,0,0,.3.41,6,6,0,0,0,.53.69c.12.13.22.26.35.38s.21.11.21.26l0,0a6.1,6.1,0,0,1,.59.54l.12.09,1,.73c.17.11.33.24.51.34a1.1,1.1,0,0,1,.4.24,1,1,0,0,0,.32.24c.26.13.5.29.77.42A1,1,0,0,0,15.28,32.37ZM29.07,21.14a.12.12,0,0,0,.05.13,6,6,0,0,1,.49.52c.11.14.25.26.37.39s.3.44.49.64a1,1,0,0,1,.15.19,5.58,5.58,0,0,0,.39.6,5.86,5.86,0,0,1,.54.94l.33.68a4.21,4.21,0,0,1,.28.66s0,.06,0,.09a3.6,3.6,0,0,1,.4.84,2.67,2.67,0,0,1,.13.4,1.38,1.38,0,0,0,.12.34,4,4,0,0,1,.27.8,5.84,5.84,0,0,0,.2.59.45.45,0,0,1,0,.11,3,3,0,0,0,.24,1,.13.13,0,0,1,0,.06,1.18,1.18,0,0,0,.09.56c.07.24,0,.49.14.72a2.19,2.19,0,0,1,.12.52c0,.08,0,.2.11.24a.55.55,0,0,0,.28.06.45.45,0,0,1,.23,0,.38.38,0,0,0,.33,0s.06,0,.09,0,.06,0,.09,0,.09-.06.14,0,0,0,.07,0a3.75,3.75,0,0,1,.57-.09h.3c.21,0,.42-.09.62-.08s.46-.1.7-.1a1.77,1.77,0,0,0,.33,0,6.58,6.58,0,0,1,.75-.14l.22,0c.1,0,.11-.06.08-.16a2,2,0,0,1-.12-.4c0-.24-.13-.46-.15-.7,0-.09-.1-.13-.09-.22a1.08,1.08,0,0,0-.12-.53c-.08-.18-.11-.38-.19-.57A8.19,8.19,0,0,0,37.62,28c-.16-.25-.34-.5-.51-.75,0,0-.09-.05-.11-.1-.07-.23-.27-.37-.41-.56l-.33-.47c-.09-.13-.19-.25-.27-.38a4.7,4.7,0,0,0-.34-.44c-.16-.21-.35-.39-.51-.61s-.33-.34-.48-.52-.38-.3-.52-.49a.92.92,0,0,0-.28-.24,1.66,1.66,0,0,1-.32-.22c-.09-.08-.22-.13-.31-.2s-.32-.19-.46-.3a4.9,4.9,0,0,0-.48-.31s0,0-.06,0a.91.91,0,0,1-.41-.22,1.77,1.77,0,0,0-.69-.33.57.57,0,0,1-.28-.14,1.89,1.89,0,0,0-.3-.19c-.05,0-.1-.08-.16-.08a3.47,3.47,0,0,1-.56-.11c-.17,0-.32-.13-.49-.17A.51.51,0,0,0,29.07,21.14ZM24.56,40.6a1.89,1.89,0,0,0-.09-.45c0-.23-.07-.47-.13-.7a7.72,7.72,0,0,0-.19-1,2.47,2.47,0,0,1,0-.54c0-.22-.06-.44-.05-.66a2.54,2.54,0,0,0,0-.39c0-.14-.07-.2-.19-.22a1.15,1.15,0,0,0-.26,0c-.1,0-.16-.08-.26-.08s-.28,0-.43,0-.08,0-.1,0-.18-.06-.28-.07a.79.79,0,0,1-.22,0c-.13,0-.26,0-.39-.07s-.18,0-.27,0a3.57,3.57,0,0,0-.55-.11.29.29,0,0,1-.16,0c-.17-.11-.36,0-.54-.08,0,0-.07,0-.09,0S20.07,36,20,36a.48.48,0,0,1-.22-.05.22.22,0,0,0-.2-.06c-.09,0-.13-.08-.2-.09a2.19,2.19,0,0,1-.57-.09,2.16,2.16,0,0,0-.66-.14s-.05,0-.05,0-.12-.07-.19-.07a.35.35,0,0,1-.2,0,.64.64,0,0,0-.3-.08.16.16,0,0,0-.18.1A2.07,2.07,0,0,0,17,36c0,.2-.17.34-.17.54a.52.52,0,0,0-.14.32,2.41,2.41,0,0,1-.29.68.45.45,0,0,0-.08.22,1.12,1.12,0,0,1-.21.5c-.05.08-.08.16-.13.24s-.06.24-.11.34-.13.42-.29.59a.14.14,0,0,0,0,.07.86.86,0,0,1-.2.33c-.13.18-.26.35-.38.53s0,.1,0,.11a2.12,2.12,0,0,1,.44,0,.09.09,0,0,0,.09,0,.42.42,0,0,1,.22,0c.34,0,.67,0,1,0h.48a.83.83,0,0,0,.22,0,2.24,2.24,0,0,1,.73,0c.28,0,.55,0,.82,0a.12.12,0,0,0,.13-.11,2.26,2.26,0,0,0,0-.45c0-.51,0-1,0-1.54,0-.34.09-.67.07-1,0-.11.07-.17.15-.1s.13,0,.18,0,.13,0,.2,0h.82c.21,0,.21,0,.21.2v.26c0,.1,0,.21,0,.28s0,.15,0,.23q0,1.05,0,2.1c0,.06,0,.09.08.09.27,0,.53,0,.8,0h2.89ZM21,16.33a1.33,1.33,0,0,1,0,.2c0,.12.06.17.16.24a1.86,1.86,0,0,0,.54.2,2.76,2.76,0,0,0,.58.16,1,1,0,0,1,.17,0c.24.09.49.18.73.29l.45.2.31.14a4.34,4.34,0,0,1,.7.3c.12.07.26,0,.24-.1s0-.34,0-.51A2.92,2.92,0,0,1,25,17a3.57,3.57,0,0,0,0-.57c-.05-.33,0-.66-.07-1s0-.8-.11-1.2-.17-.64-.21-1a4.09,4.09,0,0,0-.24-.75c-.05-.19-.1-.37-.17-.56a4.36,4.36,0,0,0-.33-.6c-.1-.18-.23-.34-.33-.52s-.17-.3-.25-.46a2.9,2.9,0,0,0-.45-.65c-.21-.26-.46-.48-.69-.72a10.15,10.15,0,0,0-.92-.7s-.1-.08-.16,0,0,.11,0,.17a.59.59,0,0,0,0,.13c0,.23,0,.47.06.7a3.45,3.45,0,0,0,.07.55,1.08,1.08,0,0,1,0,.64.14.14,0,0,0,0,.09,4.2,4.2,0,0,1,.07.62,3.29,3.29,0,0,1,0,.63.51.51,0,0,0,0,.17,1.35,1.35,0,0,1,.05.45c0,.1,0,.22,0,.33v.86s0,.11,0,.14a.42.42,0,0,0-.05.29s0,.1,0,.15a2.54,2.54,0,0,0-.09.54,6,6,0,0,1-.07.61C21.1,15.69,21.05,16,21,16.33Zm6.31,18.42a3.75,3.75,0,0,0,0-.48,10.3,10.3,0,0,1-.13-1.1c0-.12-.05-.23-.05-.35a.21.21,0,0,0,0-.14c-.09-.09-.07-.2-.07-.31a1,1,0,0,0,0-.31,1.93,1.93,0,0,1-.11-.34c-.08-.26-.12-.54-.19-.82s0-.53-.09-.8l-.12-.71a2.24,2.24,0,0,1-.06-.52,1.54,1.54,0,0,0-.1-.56,1.55,1.55,0,0,1-.06-.31.93.93,0,0,0,0-.23,1.38,1.38,0,0,1-.07-.5c0-.1,0-.19,0-.29s-.09-.09-.08-.16a1.67,1.67,0,0,0,0-.39A3.32,3.32,0,0,1,26,26a.15.15,0,0,0-.08-.16c-.06,0-.09.05-.13.08a.2.2,0,0,0-.09.09,7.7,7.7,0,0,0-.55.85A1,1,0,0,1,25,27a2.53,2.53,0,0,0-.35.62c-.1.25-.27.46-.36.71A2,2,0,0,1,24,29a.25.25,0,0,0-.05.24,6,6,0,0,1,.18.92,1,1,0,0,0,0,.35,1.79,1.79,0,0,1,.07.61.7.7,0,0,0,0,.29.75.75,0,0,1,.05.26,1,1,0,0,0,0,.38c0,.11,0,.25,0,.37.1.32.06.65.13,1s.05.67.11,1c0,.18.09.23.28.24a3.25,3.25,0,0,1,.54,0c.09,0,.18.1.27,0a.48.48,0,0,0,.29,0c.24,0,.47,0,.71,0A2.65,2.65,0,0,0,27.35,34.75Zm4.15.35h.23c.13,0,.15,0,.14-.16a3.63,3.63,0,0,0,0-.57c0-.27,0-.55,0-.82s-.06-.49-.08-.74-.08-.35-.09-.52a9,9,0,0,0-.08-.91,1.85,1.85,0,0,1,0-.23.5.5,0,0,0-.06-.34.22.22,0,0,1,0-.13,4.38,4.38,0,0,0-.15-.72c0-.1-.05-.21-.08-.31a.74.74,0,0,0-.51-.64,2.2,2.2,0,0,1-.68-.35,1.49,1.49,0,0,0-.3-.18l-.49-.25c-.16-.09-.28-.23-.46-.26l0,0-.49-.29c-.08,0-.14,0-.14.09a.22.22,0,0,0,0,.08c.1.25.13.52.21.78a5.35,5.35,0,0,1,.16,1c0,.23,0,.46.08.68a1.55,1.55,0,0,0,.06.31,2.45,2.45,0,0,1,.14.64,2.28,2.28,0,0,0,0,.45c-.09.17,0,.35,0,.53A4.5,4.5,0,0,1,29,33h0c.09.1.05.22.06.32s0,.43,0,.64a4.18,4.18,0,0,1,.09.71c0,.12,0,.24.14.31s.24.13.35.09.22,0,.32-.08.21,0,.31.06h0A8.43,8.43,0,0,1,31.5,35.1Zm-13-7.68c.09,0,.09,0,.1-.11a4.15,4.15,0,0,1,.05-.93c.05-.21.1-.42.14-.63a4.37,4.37,0,0,0,.09-.5,2.28,2.28,0,0,1,.1-.52,3.27,3.27,0,0,1,.1-.45c.06-.13,0-.27.09-.39s0-.31-.12-.44a6,6,0,0,1-.5-.51c-.19-.23-.39-.46-.59-.68a8.12,8.12,0,0,1-.56-.75c-.08-.11-.14-.23-.22-.34s-.15-.07-.17,0a1.07,1.07,0,0,1-.16.27c-.1.14-.22.27-.32.42a3.22,3.22,0,0,1-.32.41,1.5,1.5,0,0,0-.45.55s0,0-.07.06a2.55,2.55,0,0,0-.66.61c-.15.15-.24.38-.48.45l0,0a1.18,1.18,0,0,1-.28.2c-.07,0-.12.09-.08.16.13.27.19.58.47.76a1.32,1.32,0,0,1,.2.12c.21.16.38.36.6.51a5,5,0,0,1,.43.37,4.05,4.05,0,0,0,.68.46c.08.05.13.12.22.15s.32.15.49.21.31.19.49.25.5.12.74.22Zm1.67,2.31a6.7,6.7,0,0,0,.09,1,5.29,5.29,0,0,1,.12.89v0a2.25,2.25,0,0,1,.07.64,2,2,0,0,0,.07.43c.06.14.05.29.11.42a2.07,2.07,0,0,1,.1.43,1,1,0,0,1,.07.34c0,.18.1.29.31.32s.28,0,.38.09h0a3.81,3.81,0,0,1,.75.07c.16,0,.33,0,.5,0s.3-.06.24-.29L23,34a1.28,1.28,0,0,1-.1-.47,9.67,9.67,0,0,0-.08-1.2,5.34,5.34,0,0,0-.15-.89c0-.05-.06-.08-.07-.15a5.88,5.88,0,0,0-.16-1.17c0-.05-.06-.09-.06-.15a9.2,9.2,0,0,0-.12-1c0-.31-.09-.62-.11-.93a.37.37,0,0,0-.13-.32,5.26,5.26,0,0,1-1.2-1.21c0-.06-.1-.12-.15-.18s-.12-.06-.15,0a2.07,2.07,0,0,0-.12.49c0,.1-.08.17-.07.26s-.05.42-.06.63a2,2,0,0,1,0,.35,3.42,3.42,0,0,0,0,.44C20.16,28.9,20.12,29.27,20.13,29.73ZM39,43.14c0-.06-.07-.09-.13-.09a.39.39,0,0,1-.15,0,1.86,1.86,0,0,0-.78-.09c-.2,0-.4,0-.61,0,0,0-.07,0-.09,0s-.11,0-.17,0c-.35,0-.71,0-1.06,0,0,0-.1,0-.13,0s-.13-.06-.2-.06a1.43,1.43,0,0,1-.36,0c-.21,0-.44,0-.64-.09a5.85,5.85,0,0,1-.73,0c-.17,0-.35.06-.51-.07h-.07l-.86,0c-.11,0-.2-.11-.31,0-.08-.1-.19-.06-.28,0-.25,0-.5-.07-.75-.05a.06.06,0,0,1-.07,0c-.07-.08-.16-.06-.24-.06H28.61a.7.7,0,0,1-.32-.06.74.74,0,0,0-.53,0,.25.25,0,0,1-.25,0,.21.21,0,0,0-.28,0,.18.18,0,0,1-.21,0c-.1-.1-.16,0-.21,0a.62.62,0,0,0-.1.16c-.08.16-.17.32-.24.49s-.22.32-.27.51a.57.57,0,0,1-.11.25.11.11,0,0,0,.07.17,1.55,1.55,0,0,0,.52.1h.47a.52.52,0,0,0,.32-.05.06.06,0,0,1,.07,0c.13.09.29,0,.43.06a1.71,1.71,0,0,0,.32,0,1.79,1.79,0,0,0,.33,0,.7.7,0,0,1,.29,0s.09,0,.12,0a.08.08,0,0,1,.09,0c.16.1.33,0,.5,0,.36,0,.72,0,1.09,0s.73,0,1.1,0h.52s.1,0,.13,0,.13-.06.2-.06H33a2.81,2.81,0,0,0,1-.09h0c.28,0,.55-.08.83-.06,0,0,.07,0,.09,0s.1,0,.16-.06h.69s.1,0,.13,0,.13-.06.2-.06c.26,0,.51,0,.77,0,0,0,.08,0,.1,0s.11-.05.17-.05l.18,0a.66.66,0,0,1,.24,0c.1,0,.15-.08.23-.08a3.76,3.76,0,0,1,.58,0,.13.13,0,0,0,.09,0c.06-.09.15-.05.23-.06ZM14.39,17.84a6.34,6.34,0,0,0-1.23.06c-.13,0-.16.05-.18.18s0,.23,0,.35,0,.25-.06.36a.19.19,0,0,0,0,.16.23.23,0,0,1,0,.26.22.22,0,0,0,0,.16c0,.41,0,.82,0,1.23a1.12,1.12,0,0,0,0,.41,1.26,1.26,0,0,1,.05.28.67.67,0,0,1-.05.19c0,.05.05.11.05.18a1.21,1.21,0,0,0,.1.56l.09.21c.06.14.05.14.19.08s.37-.3.59-.43a6.33,6.33,0,0,0,.56-.49c.18-.14.29-.37.5-.49,0,0,0,0,0,0,.14-.2.29-.39.42-.6s.15-.35.25-.5a2.94,2.94,0,0,0,.25-.68c.06-.23.15-.45.21-.68a.44.44,0,0,1,.07-.17c.11-.12.05-.26.06-.39s0-.05,0-.05-.27-.08-.42,0a.23.23,0,0,1-.18,0,5.73,5.73,0,0,0-.7-.13A3.47,3.47,0,0,0,14.39,17.84Zm8.94,8.7c.08-.22.27-.38.3-.62,0,0,0-.06.06-.1a2.88,2.88,0,0,0,.22-.38,5.36,5.36,0,0,1,.26-.54c.11-.24.27-.45.39-.68s.15-.22.2-.34,0-.11,0-.15-.15-.23-.27-.3a.68.68,0,0,1-.12-.12,3.37,3.37,0,0,0-.29-.37c-.17-.18-.31-.39-.46-.58s-.29-.45-.45-.68c-.06-.08-.06-.2-.14-.27a.65.65,0,0,1-.19-.33.39.39,0,0,0-.17-.27c-.14.13-.17.33-.34.43,0,.16-.17.25-.17.42a.23.23,0,0,1-.08.14.34.34,0,0,0-.08.14.39.39,0,0,1-.13.2,3.18,3.18,0,0,0-.44.53.59.59,0,0,1-.24.28c-.07,0-.1.16-.06.27a3.93,3.93,0,0,0,.18.43c0,.07,0,.15.05.21.15.21.17.49.34.68a0,0,0,0,0,0,0,4.85,4.85,0,0,0,.31.65,2.21,2.21,0,0,0,.28.4l.31.35c.1.12.23.21.34.32A1.23,1.23,0,0,0,23.33,26.54ZM18,18.47a1.05,1.05,0,0,0,.08.36,1.3,1.3,0,0,1,.08.34,2.09,2.09,0,0,0,.19.69,1.35,1.35,0,0,1,.14.35,2.57,2.57,0,0,0,.36.79c.11.16.21.33.33.48a4.31,4.31,0,0,0,.54.73c.1.09.12.09.21,0a2.35,2.35,0,0,1,.36-.41.16.16,0,0,0,.07-.09.62.62,0,0,1,.2-.34.62.62,0,0,0,.14-.19.7.7,0,0,1,.15-.25c.27-.23.35-.58.56-.84,0-.18.18-.27.18-.45a4,4,0,0,0,.3-.58.18.18,0,0,0-.15-.27l-.22,0c-.13,0-.21-.12-.34-.09a.83.83,0,0,1-.44-.05c-.08,0-.15,0-.22,0a1.81,1.81,0,0,0-.56-.08.5.5,0,0,1-.34-.07.84.84,0,0,0-.43-.14s-.06,0-.08,0a.26.26,0,0,0-.21-.06,3.63,3.63,0,0,1-.57,0C18.14,18.14,18,18.19,18,18.47ZM11.92,6.85a1.27,1.27,0,0,0-.39,0c-.22.07-.45.05-.67.1s-.12,0-.07.15.24.19.27.35.15.21.22.31a4.15,4.15,0,0,0,.27.41c.14.16.21.35.35.5a.46.46,0,0,1,.15.33.07.07,0,0,0,0,.05,1.7,1.7,0,0,1,.28.61,1.22,1.22,0,0,1,.12.6.15.15,0,0,0,0,.11.49.49,0,0,1,0,.27.62.62,0,0,0,0,.13c.06.19.1.39.14.58s0,.09.05.09,0,0,0-.08a.17.17,0,0,0,0-.07,1.39,1.39,0,0,1,.09-.46,2.13,2.13,0,0,1,.21-.49c.11-.23.23-.46.34-.7s.22-.27.21-.46a.09.09,0,0,1,0,0A1.77,1.77,0,0,0,14,8.67a2.67,2.67,0,0,1,.22-.36c.21-.24.4-.49.6-.74a1.8,1.8,0,0,1,.3-.37A.46.46,0,0,0,15.22,7c0-.07,0-.1-.07-.12h-1c-.29,0-.58,0-.87,0a3.08,3.08,0,0,1-.8,0h-.11A2.07,2.07,0,0,1,11.92,6.85ZM16.14,28.3a3.74,3.74,0,0,1,.32.63.35.35,0,0,1,.06.17.26.26,0,0,0,.07.18,1.24,1.24,0,0,1,.1.2,2,2,0,0,1,.16.49s0,0,0,0a2,2,0,0,1,.09.33,3.9,3.9,0,0,0,.19.69,3.06,3.06,0,0,1,.18.89c0,.36.07.72.09,1.09a.37.37,0,0,0,.22.35,1.19,1.19,0,0,0,.32.1c.19,0,.35.13.54.15,0,0,0,0,.06,0a.23.23,0,0,0,.15.07h.35c.07,0,.09,0,.09-.09a1.88,1.88,0,0,0-.06-.53,3,3,0,0,1-.09-.51,4.86,4.86,0,0,0-.07-.55,2.62,2.62,0,0,1-.09-.38,2.85,2.85,0,0,0-.05-.77,2.4,2.4,0,0,1-.06-.4c0-.07-.06-.13-.07-.21a4.08,4.08,0,0,1,0-.61.17.17,0,0,0,0-.07c-.09-.11-.06-.25-.09-.37s-.08-.26-.28-.3a5.73,5.73,0,0,1-.92-.27,3.37,3.37,0,0,0-.6-.23.57.57,0,0,1-.26-.08A.43.43,0,0,0,16.14,28.3Zm.45-17.73c-.09,0-.19,0-.29,0a1.15,1.15,0,0,0-.71.31,3.64,3.64,0,0,1-.49.36.42.42,0,0,0-.21.32.58.58,0,0,1,0,.14,1,1,0,0,0-.06.64s0,.06,0,.09a.38.38,0,0,1,0,.1,1.1,1.1,0,0,0,.41.67,1.75,1.75,0,0,1,.19.2,1.18,1.18,0,0,0,.53.38,3.25,3.25,0,0,0,.42.11,1.11,1.11,0,0,0,.44.05,2.25,2.25,0,0,1,.44,0c.19,0,.35-.14.55-.15.17-.16.42-.21.56-.43s.42-.38.52-.67a3.25,3.25,0,0,0,.11-.42.7.7,0,0,0-.13-.47c0-.08,0-.18-.12-.24s-.22-.3-.41-.36A1.18,1.18,0,0,0,18,10.9c-.06,0-.1-.11-.18-.13s-.35-.1-.53-.11a1.44,1.44,0,0,1-.37-.05A.92.92,0,0,0,16.59,10.57ZM28.06,23s-.07,0-.08,0a4.48,4.48,0,0,0-.5.47,8.11,8.11,0,0,0-.51.65s0,.07,0,.11a2.12,2.12,0,0,0,.23.35c.2.19.28.47.49.66,0,.05,0,.14.09.18s.26.25.41.34a.6.6,0,0,1,.21.17c.11.17.29.23.43.37a2.36,2.36,0,0,0,.57.35,5.06,5.06,0,0,0,.44.26c.15.07.29.16.43.23a.09.09,0,0,0,.11,0,.08.08,0,0,0,0-.1.49.49,0,0,0,0-.11,2.57,2.57,0,0,0-.2-.45c-.14-.31-.24-.63-.38-.94s-.22-.42-.31-.64a2.27,2.27,0,0,0-.27-.48s0-.09-.08-.1,0-.07-.06-.11a.53.53,0,0,0-.25-.35s0-.06-.05-.09a.38.38,0,0,0-.12-.16s-.08,0-.09-.09-.22-.27-.31-.43S28.09,23.1,28.06,23ZM12.57,44.17h.22c.09,0,.12,0,.12-.12s-.05-.18-.06-.28a1.5,1.5,0,0,0-.11-.36,1.15,1.15,0,0,1-.14-.67c0-.19-.1-.35-.07-.53,0,0,0,0,0,0s-.16-.1-.27-.11c-.41,0-.83,0-1.25,0a3.43,3.43,0,0,1-.78-.07.18.18,0,0,0-.24.18,2.61,2.61,0,0,1,0,.28c0,.11,0,.25,0,.34a.63.63,0,0,0-.05.26c0,.11,0,.21,0,.32A1,1,0,0,0,10,44a.25.25,0,0,0,.27.16c.36,0,.72,0,1.08,0a1.13,1.13,0,0,0,.41,0c.17,0,.36,0,.54,0S12.48,44.16,12.57,44.17Zm-1.7-32v-.36a.81.81,0,0,0-.12-.46c0-.06-.1-.1-.11-.17a.36.36,0,0,0-.17-.21c-.2-.14-.38-.29-.58-.42s-.12-.13-.22-.12a3,3,0,0,0-.59,0l-.53.14a1.4,1.4,0,0,0-.4.11.45.45,0,0,1-.22.08.11.11,0,0,0-.09,0,2.75,2.75,0,0,1-.26.22c-.06.06-.15.12-.17.19a.56.56,0,0,1-.12.2s-.07.05-.08.1-.07.3-.1.45,0,.15,0,.22a.26.26,0,0,0,0,.2,3,3,0,0,0,.56.67c.09.07.14.17.24.22a.38.38,0,0,1,.18.15c.05.07.11.18.24.15s.06,0,.09,0a1,1,0,0,0,.61.11h.14a1.72,1.72,0,0,0,.56-.05,3.16,3.16,0,0,0,.55-.22.81.81,0,0,0,.47-.55.08.08,0,0,1,0-.05.34.34,0,0,0,.1-.3Zm8.44-2.06a.76.76,0,0,1-.06-.26,2.73,2.73,0,0,0-.12-.75c0-.19-.12-.38-.15-.58a.81.81,0,0,0-.11-.33.12.12,0,0,1,0-.1.86.86,0,0,0-.09-.39,4.35,4.35,0,0,0-.41-.84.18.18,0,0,0-.29,0c-.07.12-.19.2-.23.34s0,0,0,.06a2.28,2.28,0,0,0-.48.5,1.56,1.56,0,0,1-.42.43.43.43,0,0,0-.23.28c0,.05-.07.09-.12.14a.78.78,0,0,0-.27.49s0,.06-.05.09,0,.11-.08.16,0,.06,0,.07.13.05.2,0a.26.26,0,0,1,.21,0h.07A.67.67,0,0,1,17,9.37a3.75,3.75,0,0,1,.75.09.57.57,0,0,1,.27.11.12.12,0,0,0,.1,0,1.51,1.51,0,0,1,.78.38.88.88,0,0,0,.25.18C19.26,10.22,19.3,10.2,19.31,10.08ZM15.46,15c.06.09.07.2.16.27a4.4,4.4,0,0,0,.46.4c.18.09.35.19.53.26l.7.3a1,1,0,0,0,.36.15,7.41,7.41,0,0,1,1,.07,1.53,1.53,0,0,0,.37,0c.14,0,.15,0,.19-.18s0-.22,0-.31a.4.4,0,0,0,0-.26c0-.11,0-.23,0-.33s0-.19,0-.29a2.54,2.54,0,0,0,.07-.47c0-.06,0-.12-.05-.15s-.09,0-.14,0a4.14,4.14,0,0,1-.59.31c-.05.09-.15.05-.22.08a1.88,1.88,0,0,1-.69.23,3.69,3.69,0,0,1-.47,0c-.05,0-.1,0-.14,0s-.11,0-.16,0-.18-.07-.28-.06h-.41a1.47,1.47,0,0,1-.72-.13A.11.11,0,0,0,15.46,15Zm-1,1.24h.09a.07.07,0,0,0,.1-.05c0-.06,0-.08,0-.11a3.07,3.07,0,0,1-.26-.25,1.07,1.07,0,0,1-.29-.34s-.06-.06-.09-.09a1,1,0,0,1-.22-.23.85.85,0,0,0-.25-.32.18.18,0,0,1-.11-.18.19.19,0,0,0,0-.11,2.69,2.69,0,0,1-.19-.32.74.74,0,0,1-.12-.46.06.06,0,0,0,0-.06.46.46,0,0,1-.17-.38s0-.05-.06-.06a.07.07,0,0,0-.07.05s0,.07,0,.11a3.25,3.25,0,0,1-.11.42,2.59,2.59,0,0,1-.31.65,1.56,1.56,0,0,1-.23.34.83.83,0,0,0-.16.21.69.69,0,0,1-.2.28.71.71,0,0,0-.29.37.18.18,0,0,1-.16.14c-.09,0-.11.07-.13.16s0,.12.09.12h2.21a.29.29,0,0,1,.18,0,.18.18,0,0,0,.22,0,.17.17,0,0,1,.18,0C14.2,16.21,14.38,16.18,14.51,16.23Zm9.33,3.38a.51.51,0,0,0,0,.27.91.91,0,0,1,.13.26,1.34,1.34,0,0,0,.19.44,6.44,6.44,0,0,0,.64,1,.43.43,0,0,1,0,.07.36.36,0,0,0,.13.19l.6.63c.16.18.16.19.31,0s.17-.15.22-.25a1.87,1.87,0,0,1,.32-.42,2,2,0,0,0,.12-.19.12.12,0,0,0,0-.17,3.73,3.73,0,0,0-.3-.26c-.17-.13-.32-.28-.49-.41a6.26,6.26,0,0,0-.66-.49c-.27-.16-.51-.36-.79-.49S24,19.61,23.84,19.61ZM18.73,42.53a.44.44,0,0,1,0,.21,2.64,2.64,0,0,1,.08.62.74.74,0,0,0,.11.5A.2.2,0,0,1,19,44a.38.38,0,0,0,.05.21c.11.21.2.43.32.64a1.29,1.29,0,0,0,.22.35c.07.08.12.07.14,0a.37.37,0,0,1,.08-.18.14.14,0,0,0,0-.12c0-.2.12-.38.1-.58l0,0a1.06,1.06,0,0,0,.18-.37,3,3,0,0,0,.16-.37,2.36,2.36,0,0,1,.21-.52c.07-.13.15-.25.22-.37s0-.15-.06-.15a5.63,5.63,0,0,0-.59-.05,2.36,2.36,0,0,1-.46,0,1.57,1.57,0,0,1-.61-.06C18.88,42.26,18.73,42.39,18.73,42.53Zm5.05-.23c-.08,0-.16.06-.26.07s-.12.07-.11.16a4.87,4.87,0,0,0,0,.54,2.21,2.21,0,0,0,0,.35,3.36,3.36,0,0,1,.15.7.49.49,0,0,0,.1.27,1,1,0,0,1,.2.34,2.56,2.56,0,0,0,.33.46c0,.05.09,0,.11,0a.83.83,0,0,0,.07-.27.56.56,0,0,1,.06-.36,2.84,2.84,0,0,0,.13-.38l.09-.22a2.16,2.16,0,0,0,.18-.56c0-.09,0-.21.08-.3a1.66,1.66,0,0,0,.29-.52c.06-.14,0-.18-.12-.18h-.77a1.19,1.19,0,0,1-.33,0Zm-15.37,1a3.14,3.14,0,0,0,0-.55c0-.07,0-.08-.09-.09a2.54,2.54,0,0,0-.39,0c-.16,0-.16,0-.19.16a.51.51,0,0,1,0,.17,1.4,1.4,0,0,1-.26.34.91.91,0,0,1-.42.2H6.61a.54.54,0,0,1-.5-.26C6.05,43.21,6,43.11,6,43a.42.42,0,0,1-.14-.28c0-.2-.1-.25-.3-.25H5c-.19,0-.35.12-.54.09a.11.11,0,0,0-.12,0s0,.07.07.1,0,0,0,.08.13.25.26.32,0,0,0,0,.08.26.13.39.1.21.29.21H6.6c.06,0,.12,0,.16,0s.1,0,.15,0c.44,0,.88,0,1.32,0,.15,0,.19,0,.18-.18S8.43,43.42,8.41,43.33Zm7.32-1.09c0-.06-.07-.05-.11-.05H14.16c-.32,0-.36.16-.32.39a2.43,2.43,0,0,1,.09.3,4,4,0,0,0,.13.69.79.79,0,0,0,.12.3c.08.12.06.28.17.38s.1.15.11.23,0,.12.09.17.1.08.15,0a3.56,3.56,0,0,0,.16-.53c.05-.17.11-.33.17-.48s.06-.11.08-.17a5.92,5.92,0,0,1,.37-.81C15.56,42.5,15.65,42.37,15.73,42.24ZM7.23,14.36c-.11,0-.13,0-.13.11s0,.46,0,.69a1.61,1.61,0,0,0,0,.31,1,1,0,0,1,0,.3.52.52,0,0,0,0,.28c0,.12.07.17.17.12a.48.48,0,0,1,.23-.05s.1,0,.13-.05a.12.12,0,0,1,.1,0A.39.39,0,0,0,7.87,16a1.26,1.26,0,0,1,.54-.16.49.49,0,0,0,.29-.14.18.18,0,0,1,.07-.05,3.59,3.59,0,0,0,.54-.4c.07-.06,0-.12,0-.15A2.5,2.5,0,0,0,8.89,15c-.08,0-.16-.08-.25-.1a.65.65,0,0,0-.24,0c-.09,0-.13-.09-.22-.08a.33.33,0,0,1-.3-.12.15.15,0,0,0-.09-.06,1.24,1.24,0,0,1-.5-.21A.1.1,0,0,0,7.23,14.36ZM8,9.12a1.09,1.09,0,0,0,.6-.1A1.28,1.28,0,0,1,9,8.92,2,2,0,0,1,9.85,9a.29.29,0,0,0,.18,0s.06,0,.05-.07a3.09,3.09,0,0,0-.24-.44,4.31,4.31,0,0,0-.51-.62c-.1-.11-.21-.22-.3-.34a1.15,1.15,0,0,0-.21-.23c-.07-.07-.18-.06-.2,0s-.08.15-.09.23-.19.28-.17.46c-.08,0-.06.1-.07.16s0,.1-.06.11a.07.07,0,0,0-.05.08C8.18,8.64,8,8.8,8,9,8,9.06,8,9.07,8,9.12Zm9.14,35h.4c.1,0,.13,0,.1-.14a2.49,2.49,0,0,0-.09-.37.65.65,0,0,1-.07-.21c0-.22-.05-.44-.06-.66,0,0,0-.07,0-.08a.08.08,0,0,0-.08,0,4.07,4.07,0,0,0-.55.69c-.1.15-.11.35-.29.45s0,.2,0,.2.24.12.39.09A1.22,1.22,0,0,1,17.11,44.08Zm4.86.09h.19c.16,0,.16,0,.16-.16a.39.39,0,0,0,0-.15,1.68,1.68,0,0,1-.12-.38s0-.06,0-.09a.06.06,0,0,0-.12,0,2.37,2.37,0,0,1-.22.33,1.59,1.59,0,0,0-.15.29c0,.11,0,.18.13.18Z"/><path d="M17.85,12.21a.85.85,0,0,1-.22.68c-.08.12-.2.21-.27.34s-.07,0-.11.06l-.31.15a.81.81,0,0,1-.68,0,2.5,2.5,0,0,0-.38-.15.13.13,0,0,1-.12-.09c0-.14-.16-.25-.2-.38a4,4,0,0,1-.14-.57.74.74,0,0,1,.24-.63c.11-.1.18-.23.33-.28a1,1,0,0,0,.33-.15h0c.12.14.27,0,.41.05a1.94,1.94,0,0,0,.42.07.67.67,0,0,1,.15.06,2.45,2.45,0,0,1,.47.44.08.08,0,0,1,0,.08C17.84,12,17.84,12.09,17.85,12.21Z"/><path d="M8.89,13.26c-.14.05-.27-.07-.4-.12L8.27,13a.55.55,0,0,1-.2-.23c-.07-.18-.15-.35-.21-.53a.35.35,0,0,1,0-.34s0-.09,0-.14,0-.11,0-.14a.29.29,0,0,0,.11-.24.14.14,0,0,1,.1-.13.83.83,0,0,0,.15-.11,2.22,2.22,0,0,1,.61-.32.06.06,0,0,1,.07,0,.31.31,0,0,0,.25,0,.79.79,0,0,1,.57.19.73.73,0,0,1,.27.46l0,.18a1.3,1.3,0,0,1,0,.78.62.62,0,0,1-.24.37.15.15,0,0,0-.07.1.3.3,0,0,1-.26.21c-.16,0-.32,0-.47.08S9,13.26,8.89,13.26Z"/><path class="cls-3" d="M181.49,19.67c-2.43,0-4.87,0-7.3,0a5.43,5.43,0,0,1-3.25-.63v1c0,7.69,0,15.39,0,23.08,0,.66.16.85.84.84q10.38,0,20.77,0c.62,0,.81-.15.8-.78,0-2,.07-4,0-5.94,0-.89.27-1.12,1.07-1a6.45,6.45,0,0,0,.76,0c0,2.81,0,5.62,0,8.42,0,.87-.28,1.18-1.16,1.18-7.92,0-15.83,0-23.74,0-1,0-1.26-.23-1.27-1.29v-.39c0-1.44,0-1.45-1.4-1.57a.86.86,0,0,1-.9-.89,3.85,3.85,0,0,1,0-.48c0-.51.17-1.12-.05-1.51s-.93-.13-1.42-.19a.85.85,0,0,1-.83-.86c0-.23,0-.45,0-.67,0-9.42.05-18.83,0-28.24a4.44,4.44,0,0,1,4.36-4.38c4.25.18,8.52,0,12.78,0,.41.56.13,1.18.18,1.77l-12.95.1a2.05,2.05,0,0,0-2.15,1.08,2.12,2.12,0,0,0,.43,2.52,5.9,5.9,0,0,1,.48-.74,3.69,3.69,0,0,1,2.68-1.62c3.77,0,7.54,0,11.31,0v1.69l-10.55.11a2,2,0,0,0-2.07,1.07,2.24,2.24,0,0,0,.41,2.55c.29-.08.36-.35.52-.54a3.63,3.63,0,0,1,2.76-1.64c3,0,5.95,0,8.93,0l0,1.72c-.35,0-.7,0-1.05,0-2.37,0-4.74,0-7.1.06a2.08,2.08,0,0,0-2.18,3,2,2,0,0,0,2,1.08l8.34,0Zm-14.88-6.85h-.19V37.64h.19Zm2.11,27.88h.17V15.88h-.17Z"/><path class="cls-4" d="M181.67,7.22c0-.59.23-1.21-.18-1.77a11.29,11.29,0,0,1,.23-1.76,1.68,1.68,0,0,1,1.71-1.27h15.09a1.15,1.15,0,0,1,.89.45q3.76,3.77,7.54,7.52a1.33,1.33,0,0,1,.52,1q0,11.12,0,22.21a10.82,10.82,0,0,1-1.72-1.73q0-9.48,0-19c0-.66-.22-.79-.82-.78-1.63,0-3.27,0-4.9,0a2.11,2.11,0,0,1-2.37-2.36c0-1.63,0-3.26,0-4.89,0-.6-.13-.81-.78-.81q-6.34.06-12.69,0c-.72,0-.94.2-.94.92q0,14.27,0,28.54c0,.77.29,1,1,1,5.19,0,10.38,0,15.57,0a4.81,4.81,0,0,1,0,1.65l-3.75,0-12.39-.1c-1.46,0-2-.57-2-2,0-3.54-.05-7.08-.07-10.62.1-2.82.1-5.65,0-8.47,0-.43,0-.86,0-1.3a6.14,6.14,0,0,0,0-2V10.29a6.48,6.48,0,0,0,0-1.76Zm22.52,3.1-4.7-4.69c0,1.39,0,2.81,0,4.23,0,.4.22.47.56.46Z"/><path class="cls-5" d="M205.72,31.91a10.82,10.82,0,0,0,1.72,1.73c.35.4.71.79,1.16,1.29a4.54,4.54,0,0,0-1.49.28h-1c-.67,0-.94.3-.5.94.76,1.42.73,1.37-.72,2.2-.78.44-1.09.38-1.45-.49-.64-1.56-.71-1.53-2-.43-.42.37-.86.72-1.38,1.15a18.76,18.76,0,0,1-.15-2.41,4.81,4.81,0,0,0,0-1.65V26.4l.44-.23ZM206,34.2,200.8,29V36.3c.12,0,.21,0,.24,0,.61-.49,1.26-1.42,1.81-1.37s.69,1.26,1.12,1.9c0,0,0,.06,0,.09.1.22.25.51.51.38s.33-.36.12-.71a22.73,22.73,0,0,1-1-2.1Z"/><path class="cls-6" d="M205.57,36.16c-.44-.64-.17-.9.5-.94h1A1.59,1.59,0,0,1,205.57,36.16Z"/><path class="cls-7" d="M181.62,15c.1,2.82.1,5.65,0,8.47a25.9,25.9,0,0,1-.13-3.84V17.75A13.61,13.61,0,0,1,181.62,15Z"/><path class="cls-8" d="M166.61,12.82V37.64h-.19V12.82Z"/><path class="cls-8" d="M168.72,40.7V15.88h.17V40.71Z"/><path class="cls-7" d="M181.48,11.82a.17.17,0,0,1,.17,0,6.14,6.14,0,0,1,0,2c-.09,0-.17-.08-.13-.2C181.49,13,181.48,12.39,181.48,11.82Z"/><path class="cls-7" d="M181.66,10.29a.52.52,0,0,1-.18,0V8.57l.2,0A6.48,6.48,0,0,1,181.66,10.29Z"/><path class="cls-9" d="M191.89,24.83c-2.14,0-4.29,0-6.43,0-.53,0-.71-.13-.7-.68q0-3.16,0-6.31c0-.54.14-.7.69-.7,4.29,0,8.57,0,12.86,0,.53,0,.71.13.7.69,0,2.1,0,4.21,0,6.31,0,.54-.14.7-.69.69C196.18,24.81,194,24.83,191.89,24.83Zm-5.7-3.09c1.15-.78,2.44-1.07,3.35-2a5.63,5.63,0,0,0-2.19.85c-.68.35-1.82.45-1.87,1.22,0,.47,1.16.66,1.81,1a5.59,5.59,0,0,0,2.15.8A21.2,21.2,0,0,0,186.19,21.74Zm8,2a7.29,7.29,0,0,0,2.52-1c.58-.28,1.57-.38,1.57-1s-1-.61-1.56-.88a7,7,0,0,0-2.43-.92c.92.85,2.17,1.17,3.25,1.86C196.44,22.57,195.13,22.84,194.23,23.78Zm-.53-6c-.5-.12-.61.1-.72.34-.85,1.88-1.71,3.75-2.56,5.62-.07.16-.22.37,0,.49s.34-.09.42-.27C191.8,21.93,192.73,19.89,193.7,17.79Z"/><path class="cls-10" d="M186.19,21.74a21.2,21.2,0,0,1,3.25,1.86,5.59,5.59,0,0,1-2.15-.8c-.65-.32-1.85-.51-1.81-1,.05-.77,1.19-.87,1.87-1.22a5.63,5.63,0,0,1,2.19-.85C188.63,20.67,187.34,21,186.19,21.74Z"/><path class="cls-10" d="M194.23,23.78c.9-.94,2.21-1.21,3.35-2-1.08-.69-2.33-1-3.25-1.86a7,7,0,0,1,2.43.92c.56.27,1.55.37,1.56.88s-1,.76-1.57,1A7.29,7.29,0,0,1,194.23,23.78Z"/><path class="cls-11" d="M193.7,17.79c-1,2.1-1.9,4.14-2.84,6.18-.08.18-.21.38-.42.27s-.09-.33,0-.49c.85-1.87,1.71-3.74,2.56-5.62C193.09,17.89,193.2,17.67,193.7,17.79Z"/></svg>