<svg viewBox="0 0 621.66 127.72" xmlns="http://www.w3.org/2000/svg" xmlns:xlink="http://www.w3.org/1999/xlink"><clipPath id="a"><path d="m0 0h621.66v127.72h-621.66z"/></clipPath><g clip-path="url(#a)" fill="#4d7310"><path d="m51.29 125.2c-.43-.38-.65-.7-1.07-1.09-.1-.09-.4-.2-.51-.31-2.97 0-5.65-.03-8.61-.03-.06 0-.11.01-.16.02-.09.09-.65 2.11-.79 2.41-.17.36-.28.4-.64.24-.15-.07-.31-.15-.46-.24-.88-.52-1.62-1.26-2.38-1.95-.19-.17-.37-.36-.52-.57-.1-.15-.22-.32-.38-.36-.18-.04-.39 0-.57-.03-.56-.07-9.23.19-10.3.18-.49 0-.97-.06-1.46-.1-.19-.02-.37-.06-.55-.1-.28-.07-.52-.62-.73-.81-.07-.06-.13-.11-.19-.17-.34-.33-.76-.51-1.22-.59-.3-.05-.6-.09-.9-.11-1.29-.09-8.59-.33-9.93-.23-.82-.03-.36.02-1.17-.03-.19-.02-.98-.18-1.24-.28-.26-.28-.43-.47-.59-.8-.1-.38-.26-.74-.43-1.11-.46-.98-1.03-2.03-1.72-2.86-1.2-1.65-2.56-2.54-4-3.56-.13-.09-.25-.18-.37-.28-.11-.09-.27-.22-.36-.32-.06-.06-.02-.13.02-.17.03-.05.09-.07.15-.08h.08c.63-.03 1.26-.07 1.9-.09.5-.03 5.18-.09 6.78-.14 1.51-.04 2.8.05 4.32.03 1.07-.02 2.15-.05 3.23-.08.65-.02 3.09.07 3.73.02.47-.03.63-.65.81-.93.14-.23.23-.54.38-.76.12-.16.32-.39.44-.55.46-.6 1.19-.85 1.93-.99.48-.09 3.02-.12 3.97-.2.15 0 .32 0 .47-.02.56-.03 1.12-.04 1.68-.07.34 0 .69-.02 1.03-.03.4-.02.78-.2 1.2-.24.26-.05.64-.1.71-.15.61-.69.8-1.04 1.27-1.84.64-.79 1.1-1.69 1.57-2.61 1.02-2 1.82-4 2.65-6.08.42-1.07.79-2.22 1.07-3.34.08-.31.24-.67.27-.99.02-.16.13-.65.1-.8-.03-.28-.74-.68-.89-.79-.25-.15-.56-.33-.83-.45-3.93-1.79-12.45-8.13-13.94-9.7-1.22-1.19-2.54-2.43-3.66-3.72-.34-.39-.67-.79-1-1.19-.4-.49-.75-1.02-1.08-1.56-.84-1.39-1.61-2.82-2.34-4.27-.73-1.43-1.41-2.9-2.03-4.37-.43-1.02-.78-2.07-1.08-3.13-.57-2-1.1-4.01-1.61-6.03-.2-.8-.38-1.59-.52-2.4-.08-.51-.17-1.02-.21-1.54-.04-.51-.08-1.04-.13-1.55-.01-.06-.01-.11-.01-.17-.02-.63-.06-1.26-.08-1.9-.1-3.3-.16-6.61-.09-9.91.02-1.09.06-2.19.14-3.27.01-.07.01-.15.01-.21.03-.79.09-1.58.16-2.36.04-.46.07-.92.12-1.38.03-.39.08-.77.13-1.15.03-.3.08-.6.11-.9.11-.98.27-1.97.43-2.95.44-2.67 1.04-5.3 1.8-7.89.25-.85.48-1.72.67-2.59.05-.26.12-.51.14-.76 0-.17.08-.33.13-.5.16-.46.33-.92.51-1.38.81-2.04 1.68-4.06 2.57-6.07.75-1.71 1.53-3.41 2.3-5.11.14-.3.28-.6.44-.89.1-.18.89-1.32 1.01-1.48.18-.24.44-.37.74-.4.1-.01.68.36.79.35.99.45 1.62.72 2.36 1.14.19.14.58.16.8.3.11.07.11.14.12.21.03.17-.31 1.01-.38 1.24-.2.53-.43 1.04-.68 1.54-.29.57-.57.95-.85 1.53-.08.15-.14.5-.16.69 0 .05.08.09.13.1.09.02.22.02.32.03h.57c1.11 0 2.6 0 3.7-.03 1.52-.02 3.05-.05 4.57-.1 1.92-.07 3.86-.29 5.78-.08.38 0 .78.02 1.16.02.57 0 1.14.06 1.72.11.6.05 1.19.15 1.78.27.54.11 1.01.26 1.55.33.08.01.69.1.78.11.21-.02.26-.21.56-.43.17-.12.33-.24.48-.37 1.01-.79 2.03-1.56 3.08-2.29.69-.49 1.31-1.07 2.03-1.5.27-.16.55-.31.83-.46.35-.18.62-.27.96-.08.13.07.47.61.58.74.1.16.35.6.45.75.46.71.71 1.11.98 1.81 0 .1-.07.15-.12.2-.48.42-1.08.85-1.56 1.26-.48.42-.97.76-1.42 1.21-.18.19-.35.38-.5.6-.05.08-.09.15-.1.24 0 .08-.03.16.04.18.14.04.7.2.98.32.42.15 1.41.5 1.81.7 1.6.77 3.16 1.64 4.66 2.6.99.64 1.91 1.38 2.77 2.19 1.06 1 1.67 1.89 2.58 3.03 1.82 2.31 3.37 4.8 4.69 7.42.5.99.97 1.98 1.36 3.02.45 1.24.83 2.51 1.14 3.79.23.95.42 1.91.58 2.87.08.52.13 1.05.21 1.58.07.49.23 1.21.26 1.69.05.79.2 1.49.18 2.33-.02.98.02 2.05.06 3.03.02.63-.06 2.42.02 2.59.04.1.62.17.76.18.56.08 1.34.32 1.89.45 2.5.6 4.74 1.13 7.18 1.97 1.74.6 3.14 1.25 4.81 2.03 2.51 1.18 4.94 2.52 7.24 4.07 1.26.85 2.46 1.74 3.6 2.74.39.34.77.69 1.14 1.05.58.56 1.08 1.19 1.57 1.83.82 1.07 1.59 2.19 2.32 3.31 1.28 1.96 2.79 4.02 3.91 6.07.4.74.79 1.47 1.13 2.23.16.35.07.76.21 1.12.07.17.12.35.14.54.05.54.43 1 .63 1.49.1.26.2.5.31.76.15.38.31.75.45 1.12.21.55.17 1.15.32 1.72.24.97.56 1.94.83 2.91.28 1.04.64 2.06.85 3.12.09.42.14.85.2 1.28.04.26.07.51.1.77.01.04 0 .08 0 .13 0 .03-.02.05-.05.07s-.08.03-.12.03c-.43.09-.87.16-1.31.26-.32.07-.64.14-.96.26-.14.05-.3.11-.44.19-.19.11-.39.19-.6.23-.42.09-.84.19-1.26.25-.52.1-1.05.17-1.57.24-.57.08-1.14.14-1.71.2-.39.04-.77.09-1.15.14-.33.03-.66.07-.98.1-.44.04-.89.08-1.33.11-.49.04-.97.08-1.46.13-.03 0-.06.01-.09.01-.57.03-1.15.08-1.72.11-.66.04-1.32.09-1.98.14-.08 0-.17 0-.26.02-.61.03-1.55.14-2.16.17-.04 0-.08 0-.13.02-.04 0-.1.08-.11.12v.13.39c-.02 1.64-.04 3.28-.05 4.92 0 .51-.04 1.01-.08 1.51 0 .04 0 .08-.02.13-.02.09-.09.15-.17.18-.15.04-.31.08-.46.1-.6.08-.88.1-1.49.13-.55.03-1.08.09-1.63.14-.04 0-.09 0-.13 0-.7.03-1.41.08-2.11.11-.87.04-1.75.1-2.62.14-.19 0-.37.02-.56.02-.63.03-1.27.04-1.9.07-.11 0-.23 0-.34 0-1.79.03-3.6.06-5.39.03-.56 0-1.12 0-1.68-.02-1.18-.02-2.66-.17-3.83-.19-.17 0-.34 0-.52 0-.15 0-.17.09-.17.2.01.17.02.34.03.51.05.63.11 1.26.16 1.89.04.43.08.85.14 1.29.04.38.08.74.12 1.12.03.3.07.6.11.9.1.74.21 1.48.32 2.22.11.73.39 1.83.5 2.57v.04c.02.07.08.14.15.14h.13c.85.03 1.69.06 2.54.1.9.04 1.91-.01 2.82.03h.08c.93.04 1.87.08 2.8.12.7.03 1.41.08 2.11.13h.13c.66.04 1.32.08 1.98.12.55.03 1.08.09 1.63.14.06 0 .11 0 .17.02.66.04 1.32.1 1.97.16.46.05.91.08 1.38.12.42.04.83.08 1.24.13.32.03.63.07.94.1.38.04.77.08 1.16.12.36.04.71.09 1.07.13.28.03.57.07.86.1.57.07 1.14.13 1.71.2.54.07 1.08.15 1.62.22.47.06.94.13 1.41.2.51.08 1.03.15 1.53.23.57.09 1.14.19 1.7.29.69.12 1.38.25 2.08.38.9.18 1.66.2 2.55.39 2.14.48 4.36 1.15 6.44 1.85.62.21 1.18.43 1.77.69.29.13.51.17.78.31.14.08.36.22.49.31.51.3.15.65.04.73-.17.13-.57.34-.76.45-.38.21-1.45.73-1.84.91-2.05.99-3.17 1.38-5.37 1.95-1.02.26-2.03.5-3.06.72-.85.18-1.69.33-2.54.48-.81.13-1.61.27-2.43.4-.64.1-1.28.19-1.91.29-.58.1-1.16.2-1.74.3-.71.14-4.92.77-5.28.8-.3.02-.6.06-.9.08-.53.04-1.06.08-1.59.11-.64.04-6.08.53-6.95.57-.17 0-.34.02-.52.02-.52.03-1.04.05-1.56.07-.21 0-.43.02-.65.03-.61.02-1.24.04-1.85.06-.44.02-.89.02-1.33.03-.62.02-2.09-.04-2.21-.04-1.66.04-3.27-.09-4.94-.06-.11 0-.23 0-.34 0-.09 0-.16.03-.2.14-.03.1-.06.2-.08.29-.23.78-.57 1.68-.8 2.47-.05.06-.27 1.15-.27 1.15-.45 0-1.96-1.03-2.1-1.13-.55-.37-.56-.41-1.09-.79-.8-.38-2.08-1.88-2.37-1.95-.45-.11-1.1-.15-1.56-.14-.51.02-.77 0-1.26 0-.68.02-1.92 0-2.58.07-.24.03-.6 0-.84.05-.17.03-.28.14-.35.29-.45.82-.72 3.14-.89 3.48-1.47-.52-1.87-1.03-3.53-2.42m-11.48-39.86c.03-.31-.02-.72 0-1.02-.06-.62-.54-3.57-.81-4.47-.44-1.5-.9-2.94-1.63-4.32-.23-.44-.46-.88-.7-1.31-.93-1.69-1.9-3.34-2.87-5-.96-1.65-1.91-3.31-2.78-5-1.01-1.96-1.93-3.94-2.73-5.98-1.14-2.91-1.94-5.92-2.32-9.02-.06-.46-.14-.92-.21-1.38-.08-.5-.06-.93-.14-1.43-.07-.44-.09-1.23-.15-1.67-.02-.13-.08-.18-.2-.19-.08 0-.15 0-.22 0-1.26-.03-2.67.22-3.95.2-1.26-.03-2.32.06-3.6.03-.28 0-.73.02-1.01 0-.06 0-.12 0-.18.02-.03 0-.08.05-.09.08-.02.07-.02.14 0 .21.02.44 0 .75 0 1.21.03.91.09 4.3.15 4.99.03.4.13.81.18 1.21.07.53.21 1.09.29 1.62.1.63.22 1.26.39 1.87.58 2.09 1.17 4.18 1.76 6.27.74 2.58 1.83 5 3.27 7.28.58.92 1.19 1.8 1.84 2.67 1.2 1.83 2.69 3.8 4.3 5.47.57.59 4.94 3.99 5.86 4.6 1.67 1.12 3.22 2.01 4.99 2.98.18.06.51.06.56.06m55.65 0c.49-.01.97-.02 1.46-.03.29 0 .59-.02.88-.03.6-.04 1.2-.08 1.8-.14.39-.03.79-.07 1.19-.12.83-.11 1.66-.23 2.48-.34.26-.03.52-.07.79-.11.37-.05.73-.09 1.09-.15.37-.05.74-.08 1.09-.17.13-.03.26-.08.38-.13.15-.06.21-.21.17-.36-.02-.07-.04-.14-.06-.21-.08-.26 0-.48-.07-.73-.27-.97-.45-1.75-.7-2.72-.42-1.55-.88-3.18-1.56-4.64-.68-1.47-1.45-2.8-2.36-4.15-.78-1.16-1.73-2.46-2.57-3.57-1.15-1.51-4.38-5.46-8.87-8.69-1.49-1.08-3.07-2.03-4.69-2.89-1.62-.85-3.27-1.62-4.99-2.24-.49-.18-.97-.34-1.48-.45-.1-.03-.2-.03-.31-.03-.03 0-.05.03-.04.06 0 .04.02.08.04.12.14.19.26.39.42.57.37.44.74.87 1.13 1.3.8.89 1.58 1.82 2.29 2.8.79 1.1 1.49 2.25 2.13 3.45.72 1.33 1.39 2.69 2.03 4.06.39.82.78 1.65 1.15 2.48.57 1.31 1.04 2.65 1.49 4.01.41 1.24.8 2.48 1.11 3.76.32 1.33.62 2.66.92 3.99.37 1.61.73 3.21 1.09 4.82.02.11.05.23.08.34.02.07.09.12.16.13h.31c.67.01 1.34.01 2 .01m-39.9 23.43c.06.03.12.06.19.08.19.03.67.03.86.06.27.03.83.06 1.11.07.89.05 6.9.2 7.81.12.21-.02.4-.06.61-.09.06 0 .11-.07.1-.12 0-.12 0-.23-.03-.35-.2-1.1-.4-2.38-.62-3.48-.23-1.14-.4-2.3-.56-3.45-.04-.3-.08-.61-.1-.92-.03-.51-.08-1.02-.08-1.53 0-.17 0-.35-.02-.52s-.05-.34-.09-.52c-.02-.09-.07-.13-.14-.14-.32-.03-.64-.07-.96-.11-.48-.07-.95-.14-1.43-.23-.63-.1-1.26-.21-1.9-.32-.7-.12-1.41-.25-2.11-.38s-1.41-.26-2.11-.39c-.82-.15-1.63-.32-2.44-.49-.9-.19-1.8-.37-2.7-.57-.96-.22-1.93-.47-2.9-.69-.69-.16-1.39-.31-2.09-.46-.15-.03-.29-.03-.44-.04-.06 0-.11.02-.14.08-.07.15-.14.29-.2.44-.2.53-.42 1.06-.61 1.59-.7 1.95-1.47 3.87-2.29 5.76-.56 1.27-1.12 2.53-1.74 3.77-.28.56-.9 1.24-1.27 1.75-.06.08-.22.33-.26.42-.04.08-.05.29 0 .38.07.05.97.16 1.71.17.87.02 1.7.02 2.55.02 2.41 0 4.75.04 7.17.04h.18c.25 0 .27-.02.27-.27v-.35c0-2.6.1-4.07.1-6.68 0-1.06.11-1.41.11-1.54 0-.15.05-.2.22-.2h.31c1.29 0 2.14.08 3.43.08.42 0 .59.46.59.71 0 .48-.03.79-.03 1.26 0 2.21-.1 4.31-.1 6.52 0 .17-.03.33.02.51m12.03-68.17c.02-.98-.15-3.17-.19-3.63-.07-.76-.21-1.97-.33-2.72-.15-1.01-1.3-5.31-1.85-6.48-.81-1.76-1.92-3.51-2.95-5.16-.37-.59-.68-1-1.08-1.55-.28-.37-2.21-2.61-3.29-3.13-.21-.15-.65-.51-.87-.65-.07-.04-.75-.24-.84-.22-.04 0 .09 3 .22 3.63.11 1.06.45 4 .47 4.63.39 3.63.2 6.81.12 7.59-.04.42-.48 3.82-.54 4.3-.06.54-.16 1.67-.21 2.21-.03.49-.07.9.02 1.38.05.28 1.52.9 2.29 1.08.29.07 1.54.39 1.82.48 1.12.37 1.97.74 3.06 1.2.54.23 1.36.5 1.9.72.27.11 1.67.79 1.8.78.17-.02.3-.97.32-1.05.04-.15.12-1.39.12-1.85.01-.51.01-1.24.01-1.56m4.97 51.84c.44.02.89 0 1.32-.04.38-.04.42-.07.39-.48 0-.27-.23-1.81-.3-2.28-.08-.51-.14-1.01-.2-1.51-.04-.33-.08-.66-.12-.98-.07-.49-.15-.97-.23-1.46-.12-.74-.34-1.45-.51-2.18-.29-1.25-.51-2.52-.74-3.78-.11-.61-.12-1.21-.22-1.83-.1-.65-.21-1.3-.32-1.95-.1-.68-.2-1.36-.3-2.04-.14-.91-.36-1.83-.49-2.73-.13-.96-.24-1.92-.42-2.87-.07-.35-.18-1.4-.27-1.52-.06-.08-.16-.07-.24 0s-.16.14-.22.21c-.14.18-.26.37-.38.56-.84 1.31-1.84 2.69-2.56 4.07-.61 1.16-1.17 2.35-1.76 3.52-.1.2-.19.4-.29.61-.05.1-.07.2-.05.3.02.22.05.44.08.67.04.32.08.65.12.98.04.36.09.71.14 1.07.07.6.14 1.19.21 1.78s.15 1.19.22 1.78c.07.6.14 1.19.21 1.79.03.3.07.6.11.89.04.36.1.71.14 1.07.07.6.14 1.19.21 1.78.08.62.16 1.25.25 1.87.07.5.08 1.03.19 1.53.04.21.04.41.13.6.09.2.38.31.6.34.06.01.12.03.17.03.56.02 4.61.22 5.12.23m5.59-10.14c.05.39.09.7.14 1.01.07.56.14 1.12.21 1.68.08.59.15 1.18.23 1.77.1.85.2 1.72.3 2.57.04.36.09.71.14 1.06.03.31.07.62.11.93.04.36.08.71.12 1.07.03.19.05.38.08.57 0 .05.07.1.12.11.13 0 .27.02.39.03 1.16.04 2.33.08 3.49.12.1 0 .21 0 .31.02.4.02.79.03 1.19.06.31.02.62.03.93.05.27.02.53.03.8.03.15 0 .25-.07.29-.22.03-.09.05-.17.05-.26.01-.15.01-.3.01-.44 0-.7-.09-1.39-.13-2.09 0-.18-.04-.36-.04-.53-.04-.43-.08-.86-.13-1.29-.04-.38-.09-.77-.14-1.15-.07-.57-.14-1.15-.21-1.73-.1-.73-.2-1.47-.32-2.21-.1-.67-.19-1.36-.3-2.03-.13-.8-.27-1.62-.43-2.42-.09-.48-.2-.96-.32-1.43-.14-.56-.27-.92-.7-1.28-.25-.21-.69-.32-.97-.48-.44-.25-.81-.35-1.25-.58-1.77-.93-3.51-2.1-5.27-3.09-.1-.06-.21-.12-.31-.17-.02-.01-.05 0-.08.02 0 0-.02.03-.02.04.03.2.07.41.1.62.1.6.21 1.2.32 1.8.1.59.2 1.17.3 1.76.11.65.21 1.13.33 1.78.08.45.14.91.22 1.37.08.5.15 1 .22 1.5.09.5.16 1.02.22 1.45m-33.22-29.04c-.11.03-.16.13-.22.21-.59.74-1.1 1.77-1.71 2.48-1.3 1.54-2.73 2.92-4.16 4.32-.38.37-.75.72-1.14 1.07-.22.2-.46.38-.69.57-.09.08-.72.52-.56.67.07.15.1.26.18.41.23.42.49.82.77 1.21.12.15.82.87 1.01.97 1.65 1.49 4.87 3.95 7.24 4.91.74.32 1.61.67 2.35.98.15.06.31.12.46.16.15.03.29.06.44.07.12 0 .24-.1.26-.22.02-.1.02-.2.03-.32 0-.13 0-.26.02-.4.08-.73.08-1.5.22-2.22.19-.98.38-1.96.59-2.94.25-1.21.51-2.43.84-3.62.03-.11.05-.23.07-.35.07-.32.01-.62-.15-.9-.1-.18.02-.02-.1-.18-.27-.35-.97-.9-1.27-1.24-.72-.83-1.48-1.64-2.19-2.47-.74-.85-1.38-2.05-2.03-2.95-.08-.09-.12-.19-.23-.22m16.82 37.37c-.05-.48-.16-.97-.21-1.44-.08-.76-.15-1.51-.23-2.27-.04-.34-.08-.68-.11-1.03-.05-.43-.1-.86-.14-1.29-.04-.38-.08-.74-.13-1.12-.08-.56-.16-1.13-.24-1.69s-.17-1.13-.3-1.68c-.14-.57-.24-1.15-.33-1.72-.15-.91-.3-1.83-.4-2.75-.03-.28-.08-.56-.11-.84-.04-.34-.1-.68-.14-1.03-.07-.5-.08-.67-.14-1.18 0-.08-.04-.14-.09-.2-.06-.07-.13-.13-.2-.2-.93-.9-1.79-1.4-2.83-2.72-.19-.18-.43-.52-.58-.76-.13-.11-.5-.71-.64-.7-.29-.1-.47.74-.51.85-.1.25-.53 2.54-.58 3.9-.01.08-.02.14-.02.22-.05.68-.06 1.39-.09 2.07-.04.99-.08 1.96-.06 2.95.01.22.02.45.03.67.04.5.08.98.14 1.48.03.38.08.78.13 1.16.08.56.15 1.13.24 1.69.1.69.2 1.39.32 2.08.16.95.33 1.89.53 2.83.14.62.22 1.4.41 2.01.05.15.11.31.17.46.05.14.14.22.29.26.2.05.42.12.62.16 1.49.32 3.19.4 4.69.63.14.02.27.03.41.04.12 0 .2-.05.21-.18.02-.24-.06-.43-.1-.67m19.81 27.78s0 0 0 0c.5 0 1-.02 1.5-.03.57-.02 1.15-.04 1.72-.06.44-.02.89-.03 1.32-.05.41-.02.83-.03 1.24-.06 1.03-.04 2.06-.09 3.09-.14h.14c.79-.05 1.59-.1 2.38-.16.57-.04 5.61-.67 5.98-.72.45-.04 2.21-.15 2.51-.2.38-.05 4.41-.52 4.86-.61.25-.05.66-.11.91-.18.03 0 .05-.03.08-.05 0 0 .03-.04.02-.04 0-.03-.03-.08-.04-.08-.1-.02-.41-.11-.51-.11-.32-.02-.57-.07-.89-.09-.63-.03-2.01-.19-2.64-.25-.55-.05-6.34-.49-6.93-.54-.47-.04-.94-.09-1.41-.13-.55-.05-1.08-.11-1.63-.16-.57-.05-1.15-.09-1.72-.14-.04 0-.09 0-.13 0-.6-.05-1.2-.12-1.81-.16-.65-.05-1.3-.09-1.94-.14-.04 0-.08 0-.13 0-.35-.03-.71-.05-1.06-.08-.14 0-.27-.02-.4-.03-.37-.03-.74-.05-1.1-.08-.16 0-.33-.02-.49-.03-.41-.03-.82-.05-1.24-.08-.21-.01-.41-.02-.61-.03-.47-.03-.94-.05-1.42-.07-.29-.02-.59 0-.89-.03-.87-.06-1.74-.06-2.61-.08-.63 0-1.26-.02-1.9-.03-.93-.02-1.85-.04-2.78-.06-.38 0-.33-.04-.54.39s-1.81 3.25-1.99 3.97c0 .03-.02.07-.02.1-.02.07.03.15.09.15.09.03.64.1.7.1.67.14 4.43.09 5.73.06 1.56-.07 2.99-.04 4.55-.09m-18.78-49.64c.13-.1.14-.12.2-.23.93-1.71 1.79-3.44 2.72-5.16.24-.44.43-.63.64-1.08.14-.29.39-.61.51-.9.05-.13.07-.26.08-.39 0-.08-.03-.15-.08-.2-.44-.38-.87-1.05-1.25-1.49-1.15-1.35-2.14-2.72-3.15-4.16-.27-.39-1.38-2.7-1.46-2.66-.15-.02-1.26 2.13-1.49 2.51-.68 1.08-1.4 2.13-2.3 3.06-.15.15-.38.36-.47.55-.08.15-.16.2-.18.38-.03.28.1.62.16.89.1.36.22.7.36 1.03.32.74.68 1.47 1.04 2.19.5 1.03 1.55 2.85 1.97 3.24.51.49 1.42 1.65 2.51 2.37.04.07.18.07.2.05m-23.95-24.52h-4.42c-.14 0-.32 0-.46.02-.09 0-.56.22-.57.33-.11.22-.13.73-.13.89-.02.87-.07 1.18-.09 2.04-.06 1.73-.03 3.47-.03 5.19 0 .96.06 1.82.19 2.75.03.42.49 2.16.76 2.03.32-.16.74-.44 1.03-.65.66-.46 1.21-1.03 1.83-1.54.57-.48 1.08-.93 1.6-1.47.99-1.03 1.81-2.18 2.4-3.48.56-1.23 1.04-2.49 1.45-3.78.16-.52.3-.9.39-1.44.02-.1 0-.29 0-.39-.01-.17-1-.16-1.39-.17-1.44-.1-1.8-.31-2.55-.32m8.73 1.83c.02.2.04.43.08.66.07.35.14.69.22 1.04.26 1.13.62 2.21 1.1 3.26.49 1.06 1.02 2.1 1.63 3.1.27.44.55.87.85 1.3.17.24.36.47.56.7.09.11.2.21.32.31.26.21.32.21.57-.04.1-.1.2-.21.3-.33.25-.3.5-.59.74-.9 1.64-2.07 2.99-4.32 4.19-6.65.14-.26.26-.53.37-.8.08-.18.12-.36.18-.55.03-.08-.03-.18-.11-.23-.05-.04-.1-.06-.16-.08-.16-.05-.32-.08-.49-.08-.68 0-.8-.16-1.47-.27-.73-.12-3.72-.55-4.52-.8-.76-.25-2.13-.48-2.92-.56-.29-.02-.61-.13-.89-.06-.31.07-.51 0-.55.32zm-13.06-33.37c-1.2.04-2.73-.08-4.21.02-.38.03-.8.08-1.17.14-.32.05-1.42.07-1.73.13-.06 0-.39.26-.36.32.07.11.5.67.57.77.55.83.85 1.29 1.4 2.12.48.74.96 1.22 1.36 2.01.27.7 1 1.84 1.32 3.06.08.43.51 3.59.79 4.41.04.12.34.18.37.09 0-.58.28-1.94.54-2.45.48-.95 1.03-2.12 1.54-3.06 1.05-1.95 2.19-3.84 3.62-5.55.32-.38.55-.6.84-1.01.05-.07.43-.62.37-.62 0-.15-.26-.28-.56-.29-1.52-.04-2.91-.1-4.7-.07m16.4 76.41c-.06-.71-.2-1.31-.28-1.88-.06-.41-.13-.82-.19-1.24-.08-.51-.15-1.03-.22-1.54-.07-.49-.14-.96-.21-1.45-.1-.62-.11-1.26-.21-1.89-.13-.74-.27-1.47-.4-2.2-.15-.86-.29-1.94-.46-2.8 0-.06-.03-.11-.03-.17-.03-.09-.09-.15-.17-.18-.07-.03-.14-.04-.2-.07-1.09-.36-2.18-.61-3.27-.97-.5-.17-2.41-1.03-2.63-1.03-.14 0 .1.57.15.69.04.06.81 2.06.92 2.34.54 1.43.94 2.69 1.33 4.18.22.82.44 1.69.57 2.52.05.32.38 3.98.4 4.07.08.34.5.56.82.72.18.09 1.63.62 2.17.78.43.14.83.24 1.35.32.37.04.59.09.58-.2m-6.16-55.99c.3 0 .59-.03.89-.08.66-.1 1.25-.11 1.81-.47.75-.47 1.42-1.05 1.98-1.74.29-.35.54-.72.74-1.12.16-.33.29-.66.37-1.02.1-.53.07-1.05-.22-1.53-.1-.16-.2-.33-.31-.5-.34-.5-.76-.93-1.22-1.31-1.19-.98-2.54-1.62-4.06-1.85-.67-.1-1.33-.08-1.99.11-1.15.35-2.19.92-3.1 1.72-.2.18-.38.38-.56.58-.27.31-.44.67-.55 1.07-.17.68-.16 1.37.05 2.05.17.58.45 1.11.82 1.59.7.91 1.59 1.58 2.61 2.06.86.4 1.79.4 2.74.41m-15.77 85.89h4.12s.09 0 .14-.02c.04-.01.09-.06.08-.1-.04-.16-.03-.34-.08-.51-.24-.78-.58-1.39-.77-2.27-.12-.59-.23-.77-.26-1.97 0-.06 0-.12 0-.18-.03-.56-.28-.69-.67-.8-.31-.09-2.36-.18-3.11-.2-1.2-.03-2.11-.02-3.36-.1-.04 0-.09 0-.14.02-.03 0-.06.04-.06.06 0 .14-.08.25-.08.39-.12 1.31-.2 2.73-.2 4.06 0 .93.15 1.44.34 1.52.13.09.3.09.44.09 1.31.02 2.32 0 3.62 0m43.99-56.76c0 .1.03.16.08.22.5.7.9 1.3 1.4 1.99.4.55.73 1.05 1.2 1.55.25.26.64.65.95.86.39.26 1.91 1.6 2.34 1.88.91.59 1.9 1.09 2.86 1.6.26.14.74.28.88.26.03 0 .09-.04.08-.08 0-.15-.14-.78-.27-1.09-.73-1.69-1.54-3.35-2.4-4.99-.42-.79-.86-1.58-1.37-2.33-.38-.56-.84-1.24-1.28-1.77-.06-.07-.93-1.31-1.27-1.36-.22.01-.64.33-.8.48-.07.06-.13.13-.19.2-.72.76-1.34 1.62-2.06 2.38-.05.07-.1.14-.15.2m-30.62-42.26s.37.11.62.11.67.02.9-.03c.55 0 2.13-.05 2.94.21.79.19 1.36.41 2.11.75.41.18.86.56 1.21.84.15.13.49.38.65.5.09.07.38.04.49-.02-.02-.05.05-.44 0-.61 0-.03-.13-1.16-.2-1.47-.3-1.48-.67-2.88-1.12-4.31-.24-.75-.33-1.2-.64-1.92-.09-.22-.5-.93-.58-1.04-.02-.03-.54-.54-.59-.5-.23.15-.86.67-1.1 1.03-.61.94-1.12 1.43-1.87 2.26-.31.34-.8.6-1.1.95-.11.13-.45.87-.6 1.01-.26.24-.47.42-.6.74-.07.15-.74 1.51-.53 1.5m-14.94 7.55c0-.17 0-.49-.03-.8-.02-.48-.18-.92-.47-1.31-.08-.11-.16-.22-.25-.32-.47-.52-.96-1.01-1.48-1.48-.11-.1-.23-.2-.36-.28-.28-.2-.59-.3-.94-.3-.2 0-.39 0-.59 0-.53.03-1.06.09-1.58.16-.56.09-1.1.21-1.63.38-.65.22-1.26.51-1.82.92-.71.52-1.26 1.18-1.58 2.01-.14.34-.21.69-.27 1.05-.07.39 0 .76.19 1.09.11.2.24.38.38.56.55.68 1.14 1.31 1.78 1.89.33.3.68.56 1.05.79.41.24.84.43 1.3.53.63.15 1.26.13 1.9.05.75-.1 1.49-.29 2.2-.52.35-.11.67-.28.95-.52.33-.28.57-.62.76-1.01.19-.4.3-.82.38-1.25.1-.5.11-1 .12-1.65m6.93 11.8c.53 0 1.03.09 1.62.12.33.06.44.08.85.1.38.02.81.03 1.2.04.11 0 .13-.02.12-.06 0-.04-.02-.08-.05-.12-.15-.2-.32-.38-.47-.57-.67-.82-1.33-1.63-1.99-2.45-.44-.56-.85-1.14-1.23-1.74-.43-.68-.76-1.42-1.02-2.18-.12-.37-.24-.74-.36-1.1-.02-.05-.03-.12-.09-.15-.04-.02-.08.03-.11.13-.08.3-.19.59-.26.89-.14.54-.37 1.05-.63 1.55-.33.63-.7 1.24-1.1 1.83-.73 1.07-1.5 2.13-2.43 3.05-.04.04-.3.17-.33.22-.02.04-.04.08-.06.12s.02.14.06.16c.15.08.33.11.5.13.37.03.95 0 1.32 0 1.09.04 2.68 0 3.77.04h.71m17.23-4.82s-.19.05-.26.08c-.5.26-.99.53-1.49.79-.3.15-.59.31-.89.45-.69.33-1.43.49-2.19.54-.9.1-1.39.15-2.28.15-.83 0-2.44-.12-3.25-.25-.34-.03-1.03-.26-.99-.22 0 .14.35.69.5.79.21.25.96.85 1.25 1.01 1.15.67 2.37 1.23 3.61 1.69.66.24 1.32.42 2.02.5.73.08 1.47.15 2.2.2.29.02.85-.02.83-.02.09-.02.31-.02.38-.05.12-.05.09-.26.12-.39.04-.2.07-.46.08-.67.04-.4.1-.89.13-1.3.05-.67.09-1.11.14-1.78.03-.29.05-.67.07-.97 0-.2.02-.35 0-.56m12.66 14.89s0 .03 0 .08c.05.28.15.56.26.81.2.43.35.8.57 1.22.8 1.54 1.71 2.85 2.69 4.26.3.43.51.71.86 1.11.17.2.5.5.69.67.29.26.35.16.64-.12.35-.33.66-.7.96-1.08.28-.37.56-.74.85-1.12.08-.11.17-.22.25-.34.04-.05.04-.14 0-.18 0-.01-.02-.03-.03-.04-.56-.56-1.1-1.13-1.69-1.64-.79-.68-1.61-1.32-2.44-1.95-.83-.62-1.55-.87-2.43-1.43-.24-.15-.61-.27-.86-.41-.05-.03-.11-.04-.17-.06-.09 0-.17.08-.16.21m1.27 72.93c.1-.07.11-.17.14-.27.29-.99.59-1.98.92-2.96.5-1.44 1.05-2.86 1.64-4.27.04-.1.08-.2.12-.3.04-.12-.02-.25-.14-.3-.06-.02-.12-.04-.18-.05-.32-.08-.64-.08-.96-.09-1.19 0-2.38 0-3.58 0-.08 0-.16 0-.24.02-.03 0-.08.05-.09.09-.02.08-.02.15-.02.22v1.32c0 .59.07 1.18.18 1.76.25 1.31.72 2.54 1.44 3.68.2.32.41.65.61.97.04.08.07.15.15.18m-13.23-8.35v.02c-.4 0-.96-.1-1.36-.1-.24 0-.45-.05-.68 0-.11.02-.21.06-.32.12-.18.09-.3.24-.33.44-.02.15.04.44.05.59.02.26.08.59.13.85.14.8.35 1.6.55 2.39.21.82.52 1.61.9 2.38.15.32.26.64.48.92.09.13.2.25.32.35.23.2.38.22.5-.18.09-.26.32-1.46.43-1.78.08-.28.12-.51.23-.79.33-.84.62-1.72 1.03-2.52.16-.32.2-.52.36-.85.17-.36.51-.94.69-1.29.08-.32.08-.32-.27-.39-.49-.11-1.08-.09-1.57-.12-.37-.02-.75-.05-1.12-.06m-31.8 2.22c-.03-.31-.03-.67-.06-.98-.04-.32-.13-.44-.4-.47-.23-.02-1.38-.02-1.48.15-.26.41-.26 1-.59 1.34-.14.21-.54.56-.7.68-.26.2-.54.32-.85.38-.56.1-1.02.1-1.59 0-.3-.05-.56-.17-.77-.42-.14-.16-.33-.37-.45-.56-.16-.27-.31-.58-.46-.86-.16-.32-.24-.8-.28-.9-.09-.13-.71-.14-1.01-.15-2.33-.08-3.06.2-3.2.32 0 .06.03.17.05.24.79.93 1.12 1.67 1.54 2.68.03.06.05.13.08.19s.09.1.15.11c.1 0 .21.02.32.02.44.02.7 0 1.14 0 .67.03 1.34.05 2.01.08.23.01.45.02.68.03.53.03 1.07.05 1.6.08.73.03 1.45.05 2.19.09.03 0 1.96-.02 2.04-.19.04-.19.03-.43.03-.64 0-.36 0-.85 0-1.2m18.41-2.68c-.79 0-1.6.05-2.39.05-.13 0-.28.01-.42.02-.07 0-.13.07-.13.13 0 .5-.02 1.01 0 1.51.03.56.13 1.13.27 1.68.21.81.46 1.6.84 2.36.19.39.42.75.68 1.09.06.08.14.15.21.22.06.05.17.06.21 0 .08-.1.1-.29.16-.41.51-1.94 1.7-4.84 2.39-5.81.09-.12.17-.25.25-.38.03-.05.08-.11.11-.16.14-.2-.01-.22-.18-.26-.15-.02-.36-.04-.5-.04h-1.52zm-22.51-76.13c.02.31-.03.85-.05 1.37-.02.24-.02.38.05.58.04.09.32.12.37.11.08-.01.15-.02.23-.03.27-.08.55-.1.81-.19.63-.2 1.82-.65 2.37-.83.54-.17.4-.04.9-.27.37-.2.91-.62 1.26-.84.56-.43.78-.89.78-.89-.13-.06-1.16-.32-1.48-.4-.46-.13-.93-.24-1.39-.37-.78-.22-1.54-.48-2.25-.85-.14-.07-.28-.14-.43-.19-.14-.05-.78-.37-.88-.38-.08 0-.16.97-.18 1.14-.08.62-.1 1.21-.1 2.05m6.43-18.69c.26-.03 2.31.52 2.18.31.03-.22-.05-.62-.14-.73-.19-.25-.43-.69-.63-.93-.84-1.01-1.88-2.11-2.17-2.47-.42-.78-.85-.82-.88-.77-.39 0-.91 1.69-1.2 2.44-.2.55-.7 1.62-.9 2.17-.11.28 0 .65.24.64 1.88-.68 2.8-.6 3.5-.66m22.91 100.1c.17 0 .47-.02.62-.07.11-.03.12-.2.13-.3 0-.11-.25-1.07-.37-1.65-.09-.46-.13-.84-.16-1.39 0-.13.03-.52-.03-.64-.03-.06-.42-.05-.47 0-.13.15-.27.29-.39.45-.62.85-1.17 1.74-1.66 2.67-.08.15-.14.29-.2.45-.09.23-.06.32.19.4.1.02 2.08.08 2.33.07m13.93.31c.44-.06.38-.12.35-.27 0-.04-.06-.25-.08-.3-.15-.51-.37-1.11-.41-1.65-.02-.18-.14-.22-.27-.13-.07.04-.1.11-.16.17-.38.61-.83 1.12-1.06 1.83-.06.17 0 .31.15.35.12 0 1.26.02 1.48 0"/><path d="m101.97 27.98s0-.15.04-.17c.13-.13.13-.12.28-.23.37-.27.75-.39 1.04-.66.04-.04.02-.2-.03-.24-.18-.31-.74-.62-1.01-.79-.24-.14-.52-.26-.72-.44-.14-.13-.37-.29-.37-.43 0-.08.14-.21.24-.2.07 0 .08 0 .14.02.2.08.4.16.59.26.26.13.39.29.66.43.25.14 1.03.78 1.28.91.15.08.69-.17.86-.22.05-.02.27-.13.33-.15.43-.16.86-.35 1.26-.58.26-.15.19-.53.24-.84.02-.15 0-1.06.02-1.21 0-.07 0-.14 0-.21v-1.83s0-.08 0-.13c0-.06-.03-.11-.09-.14-.12-.15-.32-.31-.46-.37-1.65-.96-3.28-1.44-4.84-2.15-.29-.13-.39-.12-.67-.26-.16-.09-.38-.18-.52-.29-.1-.08-.19-.17-.27-.27-.15-.2-.01-.33.22-.45.05-.03.1-.06.15-.07.59-.18 1.19-.35 1.8-.39.16 0 .36 0 .37.04 0 .02-.08.1-.14.11-.25.03-.61.16-.71.2-.1.05-.2.15-.19.27 0 .05.06.17.15.23.59.42 1.76.93 2.08 1.08.82.38 1.58.8 2.4 1.17.17.08.34.17.52.23.16.05.25 0 .26-.06.03-.19.15-1.38.09-1.56-.12-.37-.61-.54-.91-.74-.11-.1-.44-.36-.56-.54-.06-.1-.09-.17-.1-.29 0-.08.14-.21.36-.17.27.05.38.18.5.27.12.1.2.15.37.17.07.02.23 0 .3 0 .09 0 .14-.02.21-.16.03-.21 0-.36.02-.49.05-.24.11-1.02.13-1.27.12-1.2.27-2.48.29-3.68.02-1.52-.04-2.97-.1-4.49-.03-.69-.15-1.34-.23-2.03-.03-.24-.39-1.54-.37-2.27 0-.12.08-.29.16-.37.1-.07.33-.12.61-.12.15 0 .29.14.39.25.09.11.17.27.21.41.11.35.18.6.14.96 0 .1-.17.04-.23-.05-.1-.13-.15-.4-.32-.68-.12-.19-.28-.12-.31-.1-.25.1-.08 1.08.03 1.67.05.24.21 1.19.21 1.29.04.59.06 1.15.08 1.67.08 1.26.16 2.36.15 3.49 0 .86-.04 1.72-.12 2.74-.06.79-.2 2.19-.28 2.87-.03.31-.04.47-.02.71.01.08.03.21.17.32.15.12.36.27.55.39.21.11.4.22.61.33.63.31 1.27.59 1.93.85.74.29 1.47.57 2.2.86.07.03.36.1.49.11.06 0 .25-.06.28-.11.27-.25.32-.36.51-.62.14-.2.55-.74.67-.86.18-.18.52-.34.58-.25.08.02.07.15.06.23 0 .06 0 .13-.04.18-.08.19-.43.6-.51.78-.1.21-.28.34-.38.55-.12.16-.14.15-.13.32-.04.14.31.44.41.54.08.08 1.02.6 1.33.82.22.15.6.38.66.45.08.09.04.39-.08.45-.17.1-.32.03-.53.05s-1.09-.59-1.33-.75c-.21-.14-.34-.28-.55-.42-.17-.11-.37-.27-.56-.33-.26-.08-.8.45-.82.46-.28.26-.87.74-1.03 1.08-.1.19.36.59.52.71.17.13 1.6 1.14 2.23 1.33.2.14.18.13.23.23.03.07.07.2 0 .35s-.35.18-.51.18c-.12-.02-.14-.03-.25-.09-.25-.13-.64-.43-.88-.57-.26-.14-.45-.27-.71-.43s-.95-.62-1.21-.78c-.32-.19-.31-.23-.47-.19-.24.06-.56.33-.93.5-.05.03-.14.08-.21.13-.64.41-1.32.79-1.97 1.17-.14.1-.32.2-.44.33-.28.31-.14.67-.16 1-.03.29 0 .67-.03.96-.11.52-.04 1.02.32 1.41.13.14.3.26.44.37.26.21.9.26 1.24.28.49.02.57.04 1.08.04.5-.04 1.32-.06 1.82-.11.45-.04.86-.1 1.31-.15.3-.02.71-.08 1.01-.09.14 0 .4.03.52.12.04.03.15.15.11.32-.02.07-.05.14-.12.17-.06.03-.13.07-.2.08-.22.04-.34.04-.57.05-.43 0-.92 0-1.35.01-.84 0-1.57.12-2.4.12-.1 0-.5.07-.52.17-.03.09-.02.24 0 .26.06.06.18.33.25.38.4.34.85.57 1.25.92.2.17.5.29.69.48.12.12.09.11.16.27.06.14.03.33-.03.43-.12.15-.26.17-.44.13-.15-.03-.22-.08-.35-.17-.24-.18-.44-.43-.67-.62-.43-.36-.85-.74-1.27-1.09-.26-.21-.51-.42-.78-.61-.11-.08-.41-.31-.55-.38-.22-.11-.69 0-.9.15-.14.11-.27.34-.37.45-.1.12-.2.32-.32.4-.16.09-.26-.01-.31-.07-.05-.07-.2-.73-.26-.78-.2-.15-.74-.02-1-.06-.3-.04-.88-.05-1.18-.08-.47-.04-.49 0-.95 0-.26 0-.41.11-.67.11-.31 0-.53.05-.83 0-.13-.02-.3-.02-.44-.07-.07-.02-.13-.07-.18-.11-.11-.08-.1-.26.02-.33.03-.02.17-.08.2-.08.1-.03.19-.07.29-.09.32-.04.77-.15 1.1-.15.49 0 .85-.03 1.33-.02.46 0 1.46.11 1.91.06.23-.03.35-.03.56-.12.08-.04.24-.62.2-.74 0-.11-.03-.2-.14-.31-.2-.22-.82-.67-1.07-.85-.36-.26-.62-.67-1.08-.67-.25 0-.87.27-1.1.36-.59.24-.72.26-1.14.23.05.03.02.04 0 .03m5.7-9.09c-.11-.03-.08.32-.08.38-.05.24-.06.84-.03 1.13.02.21.04.17.15.32.15.21.35.31.55.48.45.4 1.44.88 1.96 1.18.17.1.36.17.56.23.31.09.6.04.87-.12.37-.21.79-.6 1.04-.93.07-.1.12-.2.14-.32.02-.1-.03-.21-.12-.26-.05-.02-.12-.05-.16-.07-.32-.13-.43-.16-.78-.29-1.02-.36-2.36-.89-3.32-1.38-.09-.04-.55-.33-.78-.35m-.28 4.15c.02.26 0 .5.02.76.01.21.01.47.09.66.09.25.16.5.55.35.08-.03.31-.13.38-.17.46-.25.97-.52 1.5-.83.08-.07.22-.16.29-.24.14-.16.09-.32-.06-.47-.06-.06-.19-.12-.26-.17-.17-.12-.33-.2-.51-.31-.46-.24-.92-.56-1.39-.79-.08-.04-.15-.08-.25-.1-.11-.03-.18.04-.21.12-.06.15-.1.29-.11.44 0 .26-.03.52-.03.75m-.5 4.25c0-.12.02-.34 0-.52-.02-.2-.04-.26-.25-.24-.19.07-.4.13-.66.24-.16.07-.4.15-.49.24-.17.16-.1.37.03.55.19.25.39.41.65.57.16.1.5.2.57.06.08-.13.1-.25.12-.41 0-.13.02-.32.02-.48"/><path d="m115.41 36.28c-.62-.04-.94-.07-1.56-.1-.74-.04-1.54-.13-2.27-.14-1.5-.04-3.52-.13-5.05.02-.4 0-.76.21-1.05.26-.35.05-.74-.07-1.21-.04-.7.05-.74.02-1.39.14-.22.04-.78.12-1 .08-.08-.02-.29-.08-.35-.16-.03-.05-.07-.19-.05-.24.04-.16.3-.32.37-.49.32-.8.48-1.37 1.03-2.04.32-.4.93-.8 1.42-.96.35-.11.53-.13.89-.08.14 0 .23.39.27.66.03.17.15.81.17.97.04.4.26.72.56 1 .15.14.34.27.53.33.21.06.51-.03.86-.03.4-.02.85.04 1.09.07.92.1 1.37.05 2.28.1.89.04 1.68.07 2.39.13.24.02.51.08.8.08.63.02 1.57.05 2.2.1.34.02.68-.04 1.08-.07.13 0 .26-.03.38.03.05.02.08.1.11.15.06.09-.01.24-.07.32-.04.06-.22.11-.28.11-.35.02-1.71-.16-2.14-.19m-12.13-.71c.1 0 .94-.03 1.04-.05.13-.03.18.02.39-.21.28-.31.24-.72.27-1.14.02-.22-.05-.5-.16-.69-.14-.25-.36-.33-.62-.2-.07.03-.13.07-.2.1-.46.31-.79.59-1.1 1.05-.13.2-.13.5-.08.72.06.29.27.41.45.43"/><path d="m113.88 15.06c.57.03 1.19 0 1.75.06.32.04.8.14 1 .13.13 0 .19-.03.32-.06.06 0 .1-.12.07-.18-.06-.1-.09-.29-.37-.38-.03-.05-.19-.13-.21-.18-.02-.04.01-.04.05-.05.14-.03.29-.03.43 0 .49.12.76.23 1.09.61.08.08.13.19.14.31.06.36-.04.55-.4.63-.22.04-.4.05-.63.05-.19 0-.48-.03-.67-.04-.8 0-1.4-.08-2.21-.05-.31.02-.63.05-.94.12s-.6.03-.89-.06c-.2-.06-.4-.13-.49-.32-.11-.25 0-.33.25-.43.1-.04.21-.08.33-.1.34-.05 1.26-.06 1.38-.05"/><path d="m101.88 13.57c0-.11.08-.2.14-.3.23-.2.63-.11.7-.18.36-.2.42-.33.54-.44.1-.09.31-.17.33 0-.03.15-.1.32-.19.44-.2.3-.44.56-.72.79-.03.03-.07.05-.1.07-.32.19-.68-.12-.69-.38"/><path d="m113.44 9.38c-.21.03-.56.04-.8 0-.09-.02-.26-.24-.25-.37 0-.14.08-.24.16-.27s1.19-.1 1.7 0c.14.04.28.05.32.17 0 .04 0 .1-.05.15-.04.03-.09.05-.14.08-.1.04-.21.08-.33.1-.23.03-.36.08-.6.13"/><path d="m43.84 25.27c.39 0 .63.08.99.12.45.14 1.29.6 1.58.9.47.47.45.56.72 1.19 0 .03.02.05.04.08.16.36.17.72.04 1.08-.06.18-.12.35-.19.52-.25.58-.56 1.11-.94 1.61-.08.1-.16.2-.25.29-.32.39-.74.58-1.2.67-.39.07-.79.1-1.18.08-.38-.02-1.02-.29-1.38-.38-.79-.35-1.3-1.29-1.43-1.77-.14-.5-.21-1.01-.16-1.53.02-.36-.03-.57.09-.91.2-.59 1.19-1.51 2.09-1.87.39-.04.8-.08 1.2-.07"/><path d="m22.26 30.99c-.56 0-1.11-.08-1.65-.23-1.13-.68-1.57-1.51-1.72-2.31-.06-.39-.07-.77-.02-1.16.05-.32.13-.62.27-.91.17-.35.39-.68.64-.97.49-.6 1.14-.92 1.91-1.01.29-.04.58-.07.88-.06.38.02.75.04 1.12.14.59.15 1.02.5 1.26 1.06.08.18.15.36.2.55.14.45.21.92.24 1.39.04.66-.07 1.17-.32 1.78-.08.2-.27.43-.38.6-.35.53-.73.96-1.36 1.04-.36.06-.72.13-1.08.1"/><path d="m598.93 32.03c.94-6.07 4.76-9.39 9.39-9.39 5.01 0 7.33 4.07 7.33 7.7 0 1.31-.31 1.69-1.57 1.69zm9.27 20.97c5.39 0 10.77-3.44 13.46-10.33l-.44-.25c-2.63 4.82-6.51 7.51-10.9 7.51-6.45 0-11.65-5.64-11.65-14.72 0-.75.06-1.5.12-2.19h21.54c-.12-7.14-4.51-11.33-11.58-11.33-8.27 0-14.34 6.7-14.34 15.91s6.14 15.4 13.77 15.4m-27.57-1.06v.44h13.21v-.44c-3.57-.25-4.45-.5-4.45-3.01v-34.62c0-5.01 0-7.89.38-10.39h-.31c-2.38 1.44-5.26 2.5-8.33 2.88v.38c3.38.5 3.95 1.63 3.95 7.14v34.63c0 2.5-.88 2.76-4.45 3.01m-14.71-.02v.44h13.21v-.44c-3.57-.25-4.45-.5-4.45-3.01v-34.62c0-5.01 0-7.89.38-10.39h-.31c-2.38 1.44-5.26 2.5-8.33 2.88v.38c3.38.5 3.95 1.63 3.95 7.14v34.63c0 2.5-.88 2.76-4.45 3.01m-26-15.93c0-8.39 4.26-13.4 9.83-13.4 6.64 0 11.02 7.58 11.02 16.03s-4.26 13.4-9.83 13.4c-6.7 0-11.02-7.58-11.02-16.03m10.14 16.97c8.64 0 15.4-6.39 15.4-16.03 0-9.14-6.64-15.28-14.9-15.28s-15.34 6.39-15.34 16.03c0 9.14 6.64 15.28 14.84 15.28m-19.02-.37c1.82 0 4.01-.12 6.07-.25v-.44c-2.38-.25-3.69-.69-6.64-4.57l-10.33-13.78 5.2-5.13c4.26-4.19 7.33-5.32 10.52-5.7v-.44h-12.33v.44c2.07 0 2.88.69 2.88 1.88 0 .81-.5 1.88-1.88 3.26l-10.21 10.27v-23.86c0-5.01 0-7.89.38-10.39h-.31c-2.38 1.44-5.26 2.5-8.08 2.88v.38c3.13.5 3.69 1.63 3.69 7.14v34.63c0 2.5-.88 2.76-4.2 3.01v.44h12.46v-.44c-3.07-.25-3.95-.5-3.95-3.01v-9.64l1.38-1.31c.5-.5.81-.81 1.25-.81.5 0 .88.31 1.19.81l8.27 11.21c1.75 2.38 2.94 3.44 4.63 3.44m-51.5-16.62c0-8.39 4.26-13.4 9.83-13.4 6.64 0 11.02 7.58 11.02 16.03s-4.26 13.4-9.83 13.4c-6.7 0-11.02-7.58-11.02-16.03m10.15 16.97c8.64 0 15.4-6.39 15.4-16.03 0-9.14-6.64-15.28-14.9-15.28s-15.34 6.39-15.34 16.03c0 9.14 6.64 15.28 14.84 15.28m-23.52 0c3.01 0 6.26-1.44 8.77-3.88l-.31-.38c-1.69 1.06-3.57 1.75-5.64 1.75-2.88 0-4.95-1.31-4.95-5.13v-20.54h9.83l.44-2.5h-10.27v-6.76h-.75c-1.44 3.88-3.19 7.08-7.14 8.52v.75h3.57v21.48c0 4.76 2.82 6.7 6.45 6.7m-36.64-16.98c0-8.39 4.26-13.4 9.83-13.4 6.64 0 11.02 7.58 11.02 16.03s-4.26 13.4-9.83 13.4c-6.7 0-11.02-7.58-11.02-16.03m10.14 16.97c8.64 0 15.4-6.39 15.4-16.03 0-9.14-6.64-15.28-14.9-15.28s-15.34 6.39-15.34 16.03c0 9.14 6.64 15.28 14.84 15.28m-35.18-1.06v.44h13.96v-.44c-4.51-.25-5.45-.5-5.45-3.01v-18.85c1.82-2.88 3.76-4.7 5.57-4.7 1.38 0 2.19 1.31 3.88 1.31 1.44 0 2.57-1.06 2.57-2.5s-1-2.51-2.69-2.51c-2.25 0-4.45 1.25-6.51 3.57-1.13 1.19-2.07 2.38-2.94 3.76l.5-7.33h-.31c-2.25 1.19-5.39 2.38-8.08 2.76v.38c2.57.44 3.7 1.5 3.7 5.26v18.85c0 2.5-.88 2.76-4.2 3.01m-23.88-7.08v-17.53c2.63-2 5.2-2.82 7.51-2.82 6.64 0 10.77 5.39 10.77 14.03s-4.63 13.28-10.27 13.28c-4.88 0-8.01-3.32-8.01-6.95m-8.51 23.98v.44h13.9v-.44c-4.45-.25-5.39-.5-5.39-3v-14.84c2.32 1.19 4.88 1.75 7.64 1.75 8.39 0 15.22-6.2 15.22-16.16 0-8.89-5.64-14.65-12.71-14.65-4.13 0-7.7 2.13-10.27 4.63l.5-4.88h-.38c-2.26 1.19-5.39 2.38-8.02 2.76v.38c2.5.44 3.63 1.5 3.63 5.26v35.75c0 2.5-.88 2.75-4.13 3m-11-15.85c5.89 0 10.21-3.69 10.21-9.08 0-3.38-1.82-6.32-7.01-8.58l-2.19-.94c-4.95-2.13-6.01-4.07-6.01-6.64 0-3.32 2.82-5.14 5.82-5.14s5.95 2.5 7.58 6.76h.44l-.56-6.26c-2.19-.88-4.38-1.44-7.39-1.44-5.07 0-8.89 3.44-8.89 8.45 0 3.26 1.57 6.2 6.83 8.45l2.19.94c4.51 1.88 6.14 4.13 6.14 6.7 0 3.38-2.82 5.82-7.08 5.82-3.95 0-6.95-2.82-8.64-7.76h-.44l.75 7.01c1.88.94 4.76 1.69 8.27 1.69m-23.2-1.04v.44h12.46v-.44c-3.32-.25-4.2-.5-4.2-3.01v-17.22c0-6.51-3.07-9.77-8.08-9.77-4.63 0-7.89 2.63-10.96 5.51l.5-5.76h-.31c-2.25 1.19-5.39 2.38-8.08 2.76v.38c2.57.44 3.7 1.5 3.7 5.26v18.85c0 2.5-.88 2.76-4.2 3.01v.44h12.46v-.44c-3.07-.25-3.95-.5-3.95-3.01v-20.85c2.57-1.94 5.01-3.44 7.83-3.44 4.13 0 6.76 2.44 6.76 7.89v16.4c0 2.5-.88 2.76-3.94 3.01m-45.72-15.92c0-8.39 4.26-13.4 9.83-13.4 6.64 0 11.02 7.58 11.02 16.03s-4.26 13.4-9.83 13.4c-6.7 0-11.02-7.58-11.02-16.03m10.14 16.97c8.64 0 15.4-6.39 15.4-16.03 0-9.14-6.64-15.28-14.9-15.28s-15.34 6.39-15.34 16.03c0 9.14 6.64 15.28 14.84 15.28m-25.43-42.7c0 1.69 1.32 3.01 3.01 3.01s3.01-1.32 3.01-3.01-1.32-3.01-3.01-3.01-3.01 1.31-3.01 3.01m-3.01 41.64v.44h13.21v-.44c-3.57-.25-4.45-.5-4.45-3.01v-18.85c0-3.01 0-5.89.38-8.39h-.31c-2.25 1.19-5.39 2.38-8.33 2.76v.38c2.82.44 3.95 1.5 3.95 5.26v18.85c0 2.5-.88 2.76-4.45 3.01m-9.41 1.05c3.01 0 6.26-1.44 8.77-3.88l-.31-.38c-1.69 1.06-3.57 1.75-5.64 1.75-2.88 0-4.95-1.31-4.95-5.13v-20.54h9.83l.44-2.5h-10.27v-6.76h-.75c-1.44 3.88-3.19 7.08-7.14 8.52v.75h3.57v21.48c0 4.76 2.82 6.7 6.45 6.7m-16.33-.38c1.82 0 4.01-.12 6.07-.25v-.44c-2.38-.25-3.69-.69-6.64-4.57l-10.33-13.78 5.2-5.13c4.26-4.19 7.33-5.32 10.52-5.7v-.44h-12.34v.44c2.07 0 2.88.69 2.88 1.88 0 .81-.5 1.88-1.88 3.26l-10.21 10.27v-23.86c0-5.01 0-7.89.38-10.39h-.31c-2.38 1.44-5.26 2.5-8.08 2.88v.38c3.13.5 3.69 1.63 3.69 7.14v34.63c0 2.5-.88 2.76-4.2 3.01v.44h12.46v-.44c-3.07-.25-3.94-.5-3.94-3.01v-9.64l1.38-1.31c.5-.5.81-.81 1.25-.81.5 0 .88.31 1.19.81l8.27 11.21c1.75 2.38 2.94 3.44 4.63 3.44m-46.99-7.1c0-2.57 1.63-4.01 5.39-5.13l6.07-1.94v8.14c-2.38 2.25-4.57 3.57-6.82 3.57-2.76 0-4.63-1.75-4.63-4.63m15.39 7.32c3.26 0 5.26-2.57 6.32-4.7l-.38-.25c-.94 1.38-2 2.5-3.38 2.5-1.5 0-2.19-1.25-2.19-3.07v-17.35c0-5.45-2.88-8.08-7.14-8.08-3.01 0-6.26 1.75-9.02 4.26-2 1.75-3.26 3.69-3.26 5.07 0 1.13.94 1.69 1.94 1.69 1.19 0 2.07-.69 2.07-2 0-1.06-.75-2.38-.75-3.01 0-1.31 4.07-3.32 6.64-3.32 3.51 0 5.2 2.51 5.2 6.39v6.58l-7.39 2.19c-6.76 2-8.39 4.07-8.39 6.95 0 3.63 2.69 6.14 6.45 6.14 3.19 0 6.07-1.75 9.33-5.26.06 2.57.63 5.26 3.94 5.26m-40.28-.93v.44h13.96v-.44c-4.51-.25-5.45-.5-5.45-3.01v-18.85c1.82-2.88 3.76-4.7 5.57-4.7 1.38 0 2.19 1.31 3.88 1.31 1.44 0 2.57-1.06 2.57-2.5s-1-2.51-2.69-2.51c-2.25 0-4.45 1.25-6.51 3.57-1.13 1.19-2.07 2.38-2.94 3.76l.5-7.33h-.31c-2.25 1.19-5.39 2.38-8.08 2.76v.38c2.57.44 3.69 1.5 3.69 5.26v18.85c0 2.5-.88 2.76-4.19 3.01m-30.43 0v.44h16.72v-.44c-5.82-.25-6.7-.75-6.7-3.26v-18.91h7.95c5.64 0 6.95 2.07 7.95 7.89h.44v-16.53h-.44c-1 5.51-2.32 7.64-7.95 7.64h-7.95v-20.98h8.83c7.01 0 9.39 1.82 12.46 9.33h.5l-2.07-10.33h-29.74v.44c4.32.25 5.2.75 5.2 3.19v38.32c0 2.44-.88 2.94-5.2 3.19"/><path d="m325.74 115.46v-10.56h-2.09v6.56c0 1.51-.93 2.56-2.4 2.56s-2.23-.67-2.23-2.6v-6.51h-2.09v7.23c0 2.4 1.37 3.51 3.46 3.51 2.47 0 3.26-1.63 3.26-1.63v1.44zm11.7 0v-7.28c0-2.4-1.35-3.51-3.51-3.51-2.3 0-3.21 1.63-3.21 1.63v-1.4h-2.09v10.56h2.09v-6.56c0-1.51.93-2.6 2.4-2.6 1.26 0 2.23.67 2.23 2.6v6.56zm11.79 0v-16.74h-2.09v6.42s-.88-.47-2.28-.47c-3.07 0-5.19 2.07-5.19 5.81s2.12 5.16 4.26 5.16c1.93 0 2.79-.95 3.21-1.72v1.53h2.09zm-2.09-4.04c0 1.95-1.49 2.6-2.56 2.6-.91 0-2.79-.67-2.79-3.95 0-2.12 1-3.79 3.12-3.79 1.44 0 2.23.6 2.23.6zm18.72 4.04v-16.74h-2.09v6.42s-.88-.47-2.28-.47c-3.07 0-5.19 2.07-5.19 5.81s2.12 5.16 4.26 5.16c1.93 0 2.79-.95 3.21-1.72v1.53h2.09zm-2.1-4.04c0 1.95-1.49 2.6-2.56 2.6-.91 0-2.79-.67-2.79-3.95 0-2.12 1-3.79 3.12-3.79 1.44 0 2.23.6 2.23.6zm13.68-1.31c0-4.14-1.7-5.44-4.3-5.44-3.26 0-4.98 2.49-4.98 5.47 0 3.56 1.88 5.51 4.93 5.51 2.74 0 4.23-1.81 4.23-1.81l-.86-1.56s-1.14 1.58-3.12 1.58c-1.58 0-3.09-1.21-3.09-3.74h7.19zm-2.18-1.44h-4.91c0-.67.6-2.42 2.51-2.42s2.4 1.37 2.4 2.42m10.54-3.74s-.42-.23-1.28-.23c-1.84 0-2.74 1.88-2.74 1.88v-1.68h-2.09v10.56h2.09v-5.86c0-1.84.77-2.86 2.21-2.86.88 0 1.44.33 1.44.33zm15.81 5c0-3.88-2.19-5.25-4.42-5.25-2.07 0-3.14 1.35-3.14 1.35v-1.12h-2.09v16.7h2.09v-6.63s.95.68 2.44.68c2.96 0 5.12-2.3 5.12-5.72m-2.14.34c0 2.4-1.14 3.74-3.09 3.74-1.54 0-2.32-1.07-2.32-1.07v-5.47s.67-1.12 2.49-1.12 2.93 1.53 2.93 3.91m14.2-.04c0-3.63-2.07-5.56-5.23-5.56-2.98 0-5.16 2.14-5.16 5.58s1.93 5.4 5.09 5.4 5.3-2.28 5.3-5.42m-2.14 0c0 2.51-1.3 3.77-3.16 3.77s-3-1.37-3-3.84 1.23-3.84 3.09-3.84 3.07 1.4 3.07 3.91m6.52-11.51h-2.09v16.75h2.09zm5.28 3.04c0-.77-.56-1.37-1.33-1.37s-1.35.6-1.35 1.37.58 1.37 1.35 1.37 1.33-.6 1.33-1.37m-.33 3.14h-2.09v10.56h2.09zm8.57 1.63v-1.63h-3.26v-3.37h-2.09v3.37h-1.51v1.63h1.51l-.07 6c-.02 2.05.88 3.12 2.77 3.12 1.7 0 2.58-.91 2.58-.91l-.39-1.63s-.61.74-1.51.74c-.74 0-1.37-.37-1.35-2.21l.07-5.12h3.26zm4.1-4.77c0-.77-.56-1.37-1.33-1.37s-1.35.6-1.35 1.37.58 1.37 1.35 1.37 1.33-.6 1.33-1.37m-.33 3.14h-2.09v10.56h2.09zm9.28 7.38c0-1.84-1.28-2.56-2.51-3.09-1.12-.49-2.21-.84-2.21-1.72 0-.77.67-1.14 1.51-1.14 1.44 0 2.6.95 2.6.95l.37-1.91s-1.09-.7-2.86-.7c-2.05 0-3.65 1.21-3.65 2.98s1.12 2.47 2.28 2.98c1.26.56 2.54.88 2.54 2.03 0 .88-.74 1.32-1.72 1.32-1.46 0-3-1.32-3-1.32l-.44 1.93s1.42 1.07 3.23 1.07c2.33 0 3.86-1.23 3.86-3.37m10.22 2.01-.79-1.49s-.93 1.09-2.72 1.09c-2.12 0-2.95-2.05-2.95-3.61 0-2.28.86-3.98 3.05-3.98 1.7 0 2.65 1.14 2.65 1.14l.72-1.72s-1.05-1.07-3.44-1.07c-3.19 0-5.1 2.35-5.1 5.65s1.93 5.32 4.79 5.32c2.54 0 3.79-1.35 3.79-1.35m10.68 1.18v-7.28c0-2.4-1.35-3.51-3.51-3.51-2.3 0-3.21 1.63-3.21 1.63v-7.58h-2.09v16.74h2.09v-6.56c0-1.51.93-2.6 2.4-2.6 1.26 0 2.23.67 2.23 2.6v6.56zm11.5-5.35c0-4.14-1.7-5.44-4.3-5.44-3.26 0-4.98 2.49-4.98 5.47 0 3.56 1.88 5.51 4.93 5.51 2.74 0 4.23-1.81 4.23-1.81l-.86-1.56s-1.14 1.58-3.12 1.58c-1.58 0-3.09-1.21-3.09-3.74h7.19zm-2.19-1.44h-4.91c0-.67.6-2.42 2.51-2.42s2.39 1.37 2.39 2.42m13.25 6.79v-7.28c0-2.4-1.35-3.51-3.51-3.51-2.3 0-3.21 1.63-3.21 1.63v-1.4h-2.09v10.56h2.09v-6.56c0-1.51.93-2.6 2.4-2.6 1.26 0 2.23.67 2.23 2.6v6.56zm16.63-11.44c0-3.21-1.98-4.47-5-4.47-1.91 0-3.95.23-3.95.23v15.68h2.16v-6.86s.67.16 1.86.16c2.23 0 4.93-1.35 4.93-4.75m-2.23.03c0 1.81-1.23 2.86-2.79 2.86-1.02 0-1.77-.23-1.77-.23v-5.14s.79-.12 1.67-.12c1.68 0 2.89.86 2.89 2.63m11.01 11.42v-7.53c0-2.79-2-3.26-3.51-3.26-2.23 0-3.74 1.35-3.74 1.35l.63 1.53s1.14-1.14 2.68-1.14c1.28 0 2.02.74 2.02 2.02v.84c-2.65 0-5.74.23-5.74 3.44 0 1.77 1.28 2.93 2.95 2.93 1.39 0 2.47-.91 2.79-1.72v1.53h1.93zm-1.93-3.83c0 1.77-1.02 2.47-2.05 2.47s-1.63-.65-1.63-1.61c0-1.51 1.05-1.93 3.67-1.93v1.07zm10.85-6.7s-.42-.23-1.28-.23c-1.84 0-2.74 1.88-2.74 1.88v-1.68h-2.09v10.56h2.09v-5.86c0-1.84.77-2.86 2.21-2.86.88 0 1.44.33 1.44.33zm7.84 1.6v-1.63h-3.26v-3.37h-2.09v3.37h-1.51v1.63h1.51l-.07 6c-.02 2.05.88 3.12 2.77 3.12 1.7 0 2.58-.91 2.58-.91l-.4-1.63s-.6.74-1.51.74c-.74 0-1.37-.37-1.35-2.21l.07-5.12h3.26zm10.23 3.58c0-4.14-1.7-5.44-4.3-5.44-3.26 0-4.98 2.49-4.98 5.47 0 3.56 1.88 5.51 4.93 5.51 2.74 0 4.23-1.81 4.23-1.81l-.86-1.56s-1.14 1.58-3.12 1.58c-1.58 0-3.09-1.21-3.09-3.74h7.19zm-2.18-1.44h-4.91c0-.67.6-2.42 2.51-2.42s2.4 1.37 2.4 2.42m6.81-6.91c0-.77-.56-1.37-1.33-1.37s-1.35.6-1.35 1.37.58 1.37 1.35 1.37 1.33-.6 1.33-1.37m-.32 3.14h-2.09v10.56h2.09zm11.52 5.21c0-4.14-1.7-5.44-4.3-5.44-3.26 0-4.98 2.49-4.98 5.47 0 3.56 1.88 5.51 4.93 5.51 2.74 0 4.23-1.81 4.23-1.81l-.86-1.56s-1.14 1.58-3.12 1.58c-1.58 0-3.09-1.21-3.09-3.74h7.19zm-2.19-1.44h-4.91c0-.67.6-2.42 2.51-2.42s2.4 1.37 2.4 2.42m13.24 6.79v-7.28c0-2.4-1.35-3.51-3.51-3.51-2.3 0-3.21 1.63-3.21 1.63v-1.4h-2.09v10.56h2.09v-6.56c0-1.51.93-2.6 2.4-2.6 1.26 0 2.23.67 2.23 2.6v6.56zm16.21-5.35c0-4.14-1.7-5.44-4.3-5.44-3.26 0-4.98 2.49-4.98 5.47 0 3.56 1.89 5.51 4.93 5.51 2.74 0 4.23-1.81 4.23-1.81l-.86-1.56s-1.14 1.58-3.12 1.58c-1.58 0-3.09-1.21-3.09-3.74h7.19zm-2.18-1.44h-4.91c0-.67.6-2.42 2.51-2.42s2.4 1.37 2.4 2.42m6.89 5.65c0-.79-.63-1.4-1.44-1.4-.74 0-1.37.63-1.37 1.4s.6 1.42 1.39 1.42 1.42-.63 1.42-1.42m11.8-14.46-2.05-.4-4.47 12.56-4.23-12.56-2.35.4 5.44 15.61h1.95l5.7-15.61zm1.53 14.46c0-.79-.63-1.4-1.44-1.4-.74 0-1.37.63-1.37 1.4s.61 1.42 1.4 1.42 1.42-.63 1.42-1.42"/><path d="m412.56 92.97v-16.75h-2.09v6.42s-.88-.47-2.28-.47c-3.07 0-5.19 2.07-5.19 5.81s2.12 5.16 4.26 5.16c1.93 0 2.79-.96 3.21-1.72v1.53h2.09zm-2.09-4.04c0 1.95-1.49 2.6-2.56 2.6-.91 0-2.79-.67-2.79-3.95 0-2.12 1-3.79 3.12-3.79 1.44 0 2.23.6 2.23.6zm13.68-1.31c0-4.14-1.7-5.44-4.3-5.44-3.26 0-4.98 2.49-4.98 5.47 0 3.56 1.88 5.51 4.93 5.51 2.74 0 4.23-1.82 4.23-1.82l-.86-1.56s-1.14 1.58-3.12 1.58c-1.58 0-3.09-1.21-3.09-3.74zm-2.18-1.44h-4.91c0-.67.6-2.42 2.51-2.42s2.4 1.37 2.4 2.42m10.84 3.61c0-1.84-1.28-2.56-2.51-3.09-1.12-.49-2.21-.84-2.21-1.72 0-.77.67-1.14 1.51-1.14 1.44 0 2.61.95 2.61.95l.37-1.91s-1.09-.7-2.86-.7c-2.05 0-3.65 1.21-3.65 2.98s1.12 2.47 2.28 2.98c1.26.56 2.53.88 2.53 2.03 0 .88-.74 1.33-1.72 1.33-1.47 0-3-1.33-3-1.33l-.44 1.93s1.42 1.07 3.23 1.07c2.33 0 3.86-1.23 3.86-3.37"/><path d="m161.99 91.98-6.49-6.95 6.35-6.19-1.53-1.54-7.4 7.54v-7.3h-2.16v15.77h2.16v-7.79l7.37 8.07 1.7-1.6zm11.27-3.91c0-3.63-2.07-5.56-5.23-5.56-2.98 0-5.16 2.14-5.16 5.58s1.93 5.4 5.09 5.4 5.3-2.28 5.3-5.42m-2.14 0c0 2.51-1.3 3.77-3.16 3.77s-3-1.37-3-3.84 1.23-3.84 3.09-3.84 3.07 1.4 3.07 3.91m19.94 5.23v-7.28c0-2.4-1.35-3.51-3.51-3.51-2.54 0-3.51 1.86-3.51 1.86-.3-.95-1.28-1.86-3.21-1.86-2.3 0-3.21 1.63-3.21 1.63v-1.4h-2.09v10.56h2.09v-6.56c0-1.51.93-2.61 2.4-2.61 1.26 0 2.23.68 2.23 2.61v6.56h2.09v-6.56c0-1.51.93-2.61 2.4-2.61 1.26 0 2.23.68 2.23 2.61v6.56zm18.37 0v-7.28c0-2.4-1.35-3.51-3.51-3.51-2.54 0-3.51 1.86-3.51 1.86-.3-.95-1.28-1.86-3.21-1.86-2.3 0-3.21 1.63-3.21 1.63v-1.4h-2.09v10.56h2.09v-6.56c0-1.51.93-2.61 2.4-2.61 1.26 0 2.23.68 2.23 2.61v6.56h2.09v-6.56c0-1.51.93-2.61 2.4-2.61 1.26 0 2.23.68 2.23 2.61v6.56zm5.22-13.7c0-.77-.56-1.37-1.33-1.37s-1.35.6-1.35 1.37.58 1.37 1.35 1.37 1.33-.6 1.33-1.37m-.32 3.14h-2.09v10.56h2.09zm9.28 7.37c0-1.84-1.28-2.56-2.51-3.09-1.12-.49-2.21-.84-2.21-1.72 0-.77.68-1.14 1.51-1.14 1.44 0 2.61.95 2.61.95l.37-1.91s-1.09-.7-2.86-.7c-2.05 0-3.65 1.21-3.65 2.98s1.12 2.47 2.28 2.98c1.26.56 2.54.88 2.54 2.02 0 .88-.74 1.33-1.72 1.33-1.46 0-3-1.33-3-1.33l-.44 1.93s1.42 1.07 3.23 1.07c2.32 0 3.86-1.23 3.86-3.37m8.64 0c0-1.84-1.28-2.56-2.51-3.09-1.12-.49-2.21-.84-2.21-1.72 0-.77.67-1.14 1.51-1.14 1.44 0 2.6.95 2.6.95l.37-1.91s-1.09-.7-2.86-.7c-2.05 0-3.65 1.21-3.65 2.98s1.12 2.47 2.28 2.98c1.26.56 2.53.88 2.53 2.02 0 .88-.74 1.33-1.72 1.33-1.47 0-3-1.33-3-1.33l-.44 1.93s1.42 1.07 3.23 1.07c2.32 0 3.86-1.23 3.86-3.37m4.69-10.51c0-.77-.56-1.37-1.32-1.37s-1.35.6-1.35 1.37.58 1.37 1.35 1.37 1.32-.6 1.32-1.37m-.32 3.14h-2.09v10.56h2.09zm12.64 5.33c0-3.63-2.07-5.56-5.23-5.56-2.98 0-5.16 2.14-5.16 5.58s1.93 5.4 5.09 5.4 5.3-2.28 5.3-5.42m-2.14 0c0 2.51-1.3 3.77-3.16 3.77s-3-1.37-3-3.84 1.23-3.84 3.09-3.84 3.07 1.4 3.07 3.91m13.21 5.23v-7.28c0-2.4-1.35-3.51-3.51-3.51-2.3 0-3.21 1.63-3.21 1.63v-1.4h-2.09v10.56h2.09v-6.56c0-1.51.93-2.61 2.39-2.61 1.26 0 2.23.68 2.23 2.61v6.56h2.09zm13.7-16.7s-.67-.37-1.91-.37c-2.77 0-3.91 1.7-3.91 5.16v1.35h-1.63v1.63h1.63v8.93h2.09v-8.93h2.7v-1.63h-2.7v-1.49c0-2.16.33-3.19 1.81-3.19.84 0 1.54.42 1.54.42l.37-1.88zm9.24 16.7v-10.56h-2.09v6.56c0 1.51-.93 2.56-2.4 2.56s-2.23-.67-2.23-2.6v-6.51h-2.09v7.23c0 2.4 1.37 3.51 3.46 3.51 2.47 0 3.26-1.63 3.26-1.63v1.44zm-.89-13.63c0-.74-.58-1.37-1.28-1.37-.74 0-1.37.63-1.37 1.35s.63 1.33 1.35 1.33 1.3-.6 1.3-1.3m-4.39.02c0-.74-.6-1.33-1.33-1.33s-1.3.63-1.3 1.35.58 1.33 1.35 1.33c.7 0 1.28-.6 1.28-1.35m14.28 3.07s-.42-.23-1.28-.23c-1.84 0-2.74 1.88-2.74 1.88v-1.68h-2.09v10.56h2.09v-5.86c0-1.84.77-2.86 2.21-2.86.88 0 1.44.33 1.44.33zm18.95 9.41v-6.63h-2.16v5.47s-.7.67-2.77.67c-2.74 0-5.95-1.81-5.95-6.21 0-4.14 2.33-6.26 5.7-6.26 2.07 0 3.77.98 3.77.98l.67-2.02s-1.58-.95-4.42-.95c-4.51 0-8.09 3.07-8.09 8.33 0 6 4.4 8.05 7.86 8.05s5.4-1.42 5.4-1.42m11.68-4.24c0-4.14-1.7-5.44-4.3-5.44-3.26 0-4.98 2.49-4.98 5.47 0 3.56 1.88 5.51 4.93 5.51 2.74 0 4.23-1.82 4.23-1.82l-.86-1.56s-1.14 1.58-3.12 1.58c-1.58 0-3.09-1.21-3.09-3.74zm-2.18-1.44h-4.91c0-.67.6-2.42 2.51-2.42s2.39 1.37 2.39 2.42m10.85 3.6c0-1.84-1.28-2.56-2.51-3.09-1.12-.49-2.21-.84-2.21-1.72 0-.77.67-1.14 1.51-1.14 1.44 0 2.61.95 2.61.95l.37-1.91s-1.09-.7-2.86-.7c-2.05 0-3.65 1.21-3.65 2.98s1.12 2.47 2.28 2.98c1.26.56 2.54.88 2.54 2.02 0 .88-.74 1.33-1.72 1.33-1.47 0-3-1.33-3-1.33l-.44 1.93s1.42 1.07 3.23 1.07c2.33 0 3.86-1.23 3.86-3.37m10.2 2.03-.79-1.49s-.93 1.09-2.72 1.09c-2.12 0-2.95-2.05-2.95-3.6 0-2.28.86-3.98 3.05-3.98 1.7 0 2.65 1.14 2.65 1.14l.72-1.72s-1.05-1.07-3.44-1.07c-3.19 0-5.09 2.35-5.09 5.65s1.93 5.33 4.79 5.33c2.53 0 3.79-1.35 3.79-1.35m10.68 1.16v-7.28c0-2.4-1.35-3.51-3.51-3.51-2.3 0-3.21 1.63-3.21 1.63v-7.58h-2.09v16.74h2.09v-6.56c0-1.51.93-2.61 2.4-2.61 1.25 0 2.23.68 2.23 2.61v6.56zm5.2-13.7c0-.77-.56-1.37-1.33-1.37s-1.35.6-1.35 1.37.58 1.37 1.35 1.37 1.33-.6 1.33-1.37m-.32 3.14h-2.09v10.56h2.09zm10.82 9.4-.79-1.49s-.93 1.09-2.72 1.09c-2.12 0-2.95-2.05-2.95-3.6 0-2.28.86-3.98 3.05-3.98 1.7 0 2.65 1.14 2.65 1.14l.72-1.72s-1.05-1.07-3.44-1.07c-3.19 0-5.09 2.35-5.09 5.65s1.93 5.33 4.79 5.33c2.54 0 3.79-1.35 3.79-1.35m10.68 1.16v-7.28c0-2.4-1.35-3.51-3.51-3.51-2.3 0-3.21 1.63-3.21 1.63v-7.58h-2.09v16.74h2.09v-6.56c0-1.51.93-2.61 2.39-2.61 1.26 0 2.23.68 2.23 2.61v6.56h2.09zm8.45-8.93v-1.63h-3.26v-3.37h-2.09v3.37h-1.51v1.63h1.51l-.07 6c-.02 2.05.88 3.12 2.77 3.12 1.7 0 2.58-.91 2.58-.91l-.39-1.63s-.6.74-1.51.74c-.74 0-1.37-.37-1.35-2.21l.07-5.12h3.26zm10.24 3.58c0-4.14-1.7-5.44-4.3-5.44-3.26 0-4.98 2.49-4.98 5.47 0 3.56 1.88 5.51 4.93 5.51 2.74 0 4.23-1.82 4.23-1.82l-.86-1.56s-1.14 1.58-3.12 1.58c-1.58 0-3.09-1.21-3.09-3.74zm-2.19-1.44h-4.91c0-.67.61-2.42 2.51-2.42s2.39 1.37 2.39 2.42"/><path d="m159.64 104.17c0-3.21-1.98-4.47-5-4.47-1.91 0-3.95.23-3.95.23v15.68h2.16v-6.86s.67.16 1.86.16c2.23 0 4.93-1.35 4.93-4.75m-2.23.04c0 1.81-1.23 2.86-2.79 2.86-1.02 0-1.77-.23-1.77-.23v-5.14s.79-.12 1.67-.12c1.68 0 2.88.86 2.88 2.63m11.02 11.42v-7.53c0-2.79-2-3.26-3.51-3.26-2.23 0-3.74 1.35-3.74 1.35l.63 1.53s1.14-1.14 2.68-1.14c1.28 0 2.02.74 2.02 2.02v.84c-2.65 0-5.74.23-5.74 3.44 0 1.77 1.28 2.93 2.95 2.93 1.4 0 2.47-.91 2.79-1.72v1.53h1.93zm-1.93-3.84c0 1.77-1.02 2.47-2.05 2.47s-1.63-.65-1.63-1.61c0-1.51 1.05-1.93 3.68-1.93zm10.85-6.7s-.42-.23-1.28-.23c-1.84 0-2.74 1.88-2.74 1.88v-1.67h-2.09v10.56h2.09v-5.86c0-1.84.77-2.86 2.21-2.86.88 0 1.44.33 1.44.33l.37-2.14zm3.65-6.21h-2.09v16.75h2.09zm9.89 16.75v-7.53c0-2.79-2-3.26-3.51-3.26-2.23 0-3.75 1.35-3.75 1.35l.63 1.53s1.14-1.14 2.67-1.14c1.28 0 2.02.74 2.02 2.02v.84c-2.65 0-5.75.23-5.75 3.44 0 1.77 1.28 2.93 2.95 2.93 1.39 0 2.46-.91 2.79-1.72v1.53h1.93zm-1.93-3.84c0 1.77-1.02 2.47-2.05 2.47s-1.63-.65-1.63-1.61c0-1.51 1.05-1.93 3.68-1.93zm20.27 3.84v-7.28c0-2.4-1.35-3.51-3.51-3.51-2.53 0-3.51 1.86-3.51 1.86-.3-.95-1.28-1.86-3.21-1.86-2.3 0-3.21 1.63-3.21 1.63v-1.4h-2.09v10.56h2.09v-6.56c0-1.51.93-2.6 2.4-2.6 1.25 0 2.23.67 2.23 2.6v6.56h2.09v-6.56c0-1.51.93-2.6 2.4-2.6 1.26 0 2.23.67 2.23 2.6v6.56zm11.52-5.35c0-4.14-1.7-5.44-4.3-5.44-3.26 0-4.98 2.49-4.98 5.47 0 3.56 1.88 5.51 4.93 5.51 2.75 0 4.23-1.82 4.23-1.82l-.86-1.56s-1.14 1.58-3.12 1.58c-1.58 0-3.09-1.21-3.09-3.75h7.19zm-2.18-1.45h-4.91c0-.67.61-2.42 2.51-2.42s2.4 1.37 2.4 2.42m13.24 6.8v-7.28c0-2.4-1.35-3.51-3.51-3.51-2.3 0-3.21 1.63-3.21 1.63v-1.4h-2.09v10.56h2.09v-6.56c0-1.51.93-2.6 2.4-2.6 1.26 0 2.23.67 2.23 2.6v6.56zm8.45-8.94v-1.63h-3.26v-3.37h-2.09v3.37h-1.51v1.63h1.51l-.07 6c-.02 2.05.88 3.12 2.77 3.12 1.7 0 2.58-.91 2.58-.91l-.4-1.63s-.6.74-1.51.74c-.74 0-1.37-.37-1.35-2.21l.07-5.12h3.26zm8.81 8.94v-7.53c0-2.79-2-3.26-3.51-3.26-2.23 0-3.74 1.35-3.74 1.35l.63 1.53s1.14-1.14 2.68-1.14c1.28 0 2.02.74 2.02 2.02v.84c-2.65 0-5.74.23-5.74 3.44 0 1.77 1.28 2.93 2.95 2.93 1.4 0 2.47-.91 2.79-1.72v1.53h1.93zm-1.93-3.84c0 1.77-1.02 2.47-2.04 2.47s-1.63-.65-1.63-1.61c0-1.51 1.05-1.93 3.67-1.93zm10.85-6.7s-.42-.23-1.28-.23c-1.84 0-2.74 1.88-2.74 1.88v-1.67h-2.09v10.56h2.09v-5.86c0-1.84.77-2.86 2.21-2.86.89 0 1.44.33 1.44.33l.37-2.14zm3.98-3.16c0-.77-.56-1.37-1.33-1.37s-1.35.6-1.35 1.37.58 1.37 1.35 1.37 1.33-.6 1.33-1.37m-.33 3.14h-2.09v10.56h2.09zm9.28 7.37c0-1.84-1.28-2.56-2.51-3.09-1.12-.49-2.21-.84-2.21-1.72 0-.77.68-1.14 1.51-1.14 1.44 0 2.61.95 2.61.95l.37-1.91s-1.09-.7-2.86-.7c-2.05 0-3.65 1.21-3.65 2.98s1.12 2.46 2.28 2.98c1.26.56 2.54.88 2.54 2.02 0 .88-.74 1.32-1.72 1.32-1.47 0-3-1.32-3-1.32l-.44 1.93s1.42 1.07 3.23 1.07c2.33 0 3.86-1.23 3.86-3.37m17.85 3.19v-7.28c0-2.4-1.35-3.51-3.51-3.51-2.54 0-3.51 1.86-3.51 1.86-.3-.95-1.28-1.86-3.21-1.86-2.3 0-3.21 1.63-3.21 1.63v-1.4h-2.09v10.56h2.09v-6.56c0-1.51.93-2.6 2.39-2.6 1.26 0 2.23.67 2.23 2.6v6.56h2.09v-6.56c0-1.51.93-2.6 2.4-2.6 1.26 0 2.23.67 2.23 2.6v6.56h2.09zm11.55 0v-10.56h-2.09v6.56c0 1.51-.93 2.56-2.4 2.56s-2.23-.67-2.23-2.6v-6.51h-2.09v7.23c0 2.4 1.37 3.51 3.46 3.51 2.47 0 3.26-1.63 3.26-1.63v1.44zm9.36-3.19c0-1.84-1.28-2.56-2.51-3.09-1.12-.49-2.21-.84-2.21-1.72 0-.77.68-1.14 1.51-1.14 1.44 0 2.6.95 2.6.95l.37-1.91s-1.09-.7-2.86-.7c-2.05 0-3.65 1.21-3.65 2.98s1.12 2.46 2.28 2.98c1.26.56 2.53.88 2.53 2.02 0 .88-.74 1.32-1.72 1.32-1.47 0-3-1.32-3-1.32l-.44 1.93s1.42 1.07 3.23 1.07c2.32 0 3.86-1.23 3.86-3.37"/></g></svg>